<?xml version="1.0" encoding="utf-8" standalone="no"?>
<!DOCTYPE svg PUBLIC "-//W3C//DTD SVG 1.1//EN"
  "http://www.w3.org/Graphics/SVG/1.1/DTD/svg11.dtd">
<svg xmlns:xlink="http://www.w3.org/1999/xlink" width="1130.4pt" height="846pt" viewBox="0 0 1130.4 846" xmlns="http://www.w3.org/2000/svg" version="1.1">
 <metadata>
  <rdf:RDF xmlns:dc="http://purl.org/dc/elements/1.1/" xmlns:cc="http://creativecommons.org/ns#" xmlns:rdf="http://www.w3.org/1999/02/22-rdf-syntax-ns#">
   <cc:Work>
    <dc:type rdf:resource="http://purl.org/dc/dcmitype/StillImage"/>
    <dc:date>2025-01-10T03:08:26.325922</dc:date>
    <dc:format>image/svg+xml</dc:format>
    <dc:creator>
     <cc:Agent>
      <dc:title>Matplotlib v3.9.4, https://matplotlib.org/</dc:title>
     </cc:Agent>
    </dc:creator>
   </cc:Work>
  </rdf:RDF>
 </metadata>
 <defs>
  <style type="text/css">*{stroke-linejoin: round; stroke-linecap: butt}</style>
 </defs>
 <g id="figure_1">
  <g id="patch_1">
   <path d="M 0 846 
L 1130.4 846 
L 1130.4 0 
L 0 0 
z
" style="fill: #1c1c1c"/>
  </g>
  <g id="axes_1">
   <g id="text_1">
    <g id="patch_2">
     <path d="M 284.496094 426.083437 
L 322.778906 426.083437 
L 322.778906 419.916562 
L 284.496094 419.916562 
z
" style="fill: #1c1c1c; opacity: 0.7"/>
    </g>
    <!-- Gi0/1 - Gi0/1 -->
    <g style="fill: #ffffff" transform="translate(284.676094 424.655625) scale(0.06 -0.06)">
     <defs>
      <path id="DejaVuSans-47" d="M 3809 666 
L 3809 1919 
L 2778 1919 
L 2778 2438 
L 4434 2438 
L 4434 434 
Q 4069 175 3628 42 
Q 3188 -91 2688 -91 
Q 1594 -91 976 548 
Q 359 1188 359 2328 
Q 359 3472 976 4111 
Q 1594 4750 2688 4750 
Q 3144 4750 3555 4637 
Q 3966 4525 4313 4306 
L 4313 3634 
Q 3963 3931 3569 4081 
Q 3175 4231 2741 4231 
Q 1884 4231 1454 3753 
Q 1025 3275 1025 2328 
Q 1025 1384 1454 906 
Q 1884 428 2741 428 
Q 3075 428 3337 486 
Q 3600 544 3809 666 
z
" transform="scale(0.015625)"/>
      <path id="DejaVuSans-69" d="M 603 3500 
L 1178 3500 
L 1178 0 
L 603 0 
L 603 3500 
z
M 603 4863 
L 1178 4863 
L 1178 4134 
L 603 4134 
L 603 4863 
z
" transform="scale(0.015625)"/>
      <path id="DejaVuSans-30" d="M 2034 4250 
Q 1547 4250 1301 3770 
Q 1056 3291 1056 2328 
Q 1056 1369 1301 889 
Q 1547 409 2034 409 
Q 2525 409 2770 889 
Q 3016 1369 3016 2328 
Q 3016 3291 2770 3770 
Q 2525 4250 2034 4250 
z
M 2034 4750 
Q 2819 4750 3233 4129 
Q 3647 3509 3647 2328 
Q 3647 1150 3233 529 
Q 2819 -91 2034 -91 
Q 1250 -91 836 529 
Q 422 1150 422 2328 
Q 422 3509 836 4129 
Q 1250 4750 2034 4750 
z
" transform="scale(0.015625)"/>
      <path id="DejaVuSans-2f" d="M 1625 4666 
L 2156 4666 
L 531 -594 
L 0 -594 
L 1625 4666 
z
" transform="scale(0.015625)"/>
      <path id="DejaVuSans-31" d="M 794 531 
L 1825 531 
L 1825 4091 
L 703 3866 
L 703 4441 
L 1819 4666 
L 2450 4666 
L 2450 531 
L 3481 531 
L 3481 0 
L 794 0 
L 794 531 
z
" transform="scale(0.015625)"/>
      <path id="DejaVuSans-20" transform="scale(0.015625)"/>
      <path id="DejaVuSans-2d" d="M 313 2009 
L 1997 2009 
L 1997 1497 
L 313 1497 
L 313 2009 
z
" transform="scale(0.015625)"/>
     </defs>
     <use xlink:href="#DejaVuSans-47"/>
     <use xlink:href="#DejaVuSans-69" x="77.490234"/>
     <use xlink:href="#DejaVuSans-30" x="105.273438"/>
     <use xlink:href="#DejaVuSans-2f" x="168.896484"/>
     <use xlink:href="#DejaVuSans-31" x="202.587891"/>
     <use xlink:href="#DejaVuSans-20" x="266.210938"/>
     <use xlink:href="#DejaVuSans-2d" x="297.998047"/>
     <use xlink:href="#DejaVuSans-20" x="334.082031"/>
     <use xlink:href="#DejaVuSans-47" x="365.869141"/>
     <use xlink:href="#DejaVuSans-69" x="443.359375"/>
     <use xlink:href="#DejaVuSans-30" x="471.142578"/>
     <use xlink:href="#DejaVuSans-2f" x="534.765625"/>
     <use xlink:href="#DejaVuSans-31" x="568.457031"/>
    </g>
   </g>
   <g id="text_2">
    <g id="patch_3">
     <path d="M 807.621094 426.083438 
L 845.903906 426.083438 
L 845.903906 419.916562 
L 807.621094 419.916562 
z
" style="fill: #1c1c1c; opacity: 0.7"/>
    </g>
    <!-- Gi0/3 - Gi0/2 -->
    <g style="fill: #ffffff" transform="translate(807.801094 424.655625) scale(0.06 -0.06)">
     <defs>
      <path id="DejaVuSans-33" d="M 2597 2516 
Q 3050 2419 3304 2112 
Q 3559 1806 3559 1356 
Q 3559 666 3084 287 
Q 2609 -91 1734 -91 
Q 1441 -91 1130 -33 
Q 819 25 488 141 
L 488 750 
Q 750 597 1062 519 
Q 1375 441 1716 441 
Q 2309 441 2620 675 
Q 2931 909 2931 1356 
Q 2931 1769 2642 2001 
Q 2353 2234 1838 2234 
L 1294 2234 
L 1294 2753 
L 1863 2753 
Q 2328 2753 2575 2939 
Q 2822 3125 2822 3475 
Q 2822 3834 2567 4026 
Q 2313 4219 1838 4219 
Q 1578 4219 1281 4162 
Q 984 4106 628 3988 
L 628 4550 
Q 988 4650 1302 4700 
Q 1616 4750 1894 4750 
Q 2613 4750 3031 4423 
Q 3450 4097 3450 3541 
Q 3450 3153 3228 2886 
Q 3006 2619 2597 2516 
z
" transform="scale(0.015625)"/>
      <path id="DejaVuSans-32" d="M 1228 531 
L 3431 531 
L 3431 0 
L 469 0 
L 469 531 
Q 828 903 1448 1529 
Q 2069 2156 2228 2338 
Q 2531 2678 2651 2914 
Q 2772 3150 2772 3378 
Q 2772 3750 2511 3984 
Q 2250 4219 1831 4219 
Q 1534 4219 1204 4116 
Q 875 4013 500 3803 
L 500 4441 
Q 881 4594 1212 4672 
Q 1544 4750 1819 4750 
Q 2544 4750 2975 4387 
Q 3406 4025 3406 3419 
Q 3406 3131 3298 2873 
Q 3191 2616 2906 2266 
Q 2828 2175 2409 1742 
Q 1991 1309 1228 531 
z
" transform="scale(0.015625)"/>
     </defs>
     <use xlink:href="#DejaVuSans-47"/>
     <use xlink:href="#DejaVuSans-69" x="77.490234"/>
     <use xlink:href="#DejaVuSans-30" x="105.273438"/>
     <use xlink:href="#DejaVuSans-2f" x="168.896484"/>
     <use xlink:href="#DejaVuSans-33" x="202.587891"/>
     <use xlink:href="#DejaVuSans-20" x="266.210938"/>
     <use xlink:href="#DejaVuSans-2d" x="297.998047"/>
     <use xlink:href="#DejaVuSans-20" x="334.082031"/>
     <use xlink:href="#DejaVuSans-47" x="365.869141"/>
     <use xlink:href="#DejaVuSans-69" x="443.359375"/>
     <use xlink:href="#DejaVuSans-30" x="471.142578"/>
     <use xlink:href="#DejaVuSans-2f" x="534.765625"/>
     <use xlink:href="#DejaVuSans-32" x="568.457031"/>
    </g>
   </g>
   <g id="text_3">
    <g id="patch_4">
     <path d="M 677.822594 549.271665 
L 719.735406 549.271665 
L 719.735406 543.10479 
L 677.822594 543.10479 
z
" style="fill: #1c1c1c; opacity: 0.7"/>
    </g>
    <!-- Gi0/0 - Eth2/0 -->
    <g style="fill: #ffffff" transform="translate(678.002594 547.843852) scale(0.06 -0.06)">
     <defs>
      <path id="DejaVuSans-45" d="M 628 4666 
L 3578 4666 
L 3578 4134 
L 1259 4134 
L 1259 2753 
L 3481 2753 
L 3481 2222 
L 1259 2222 
L 1259 531 
L 3634 531 
L 3634 0 
L 628 0 
L 628 4666 
z
" transform="scale(0.015625)"/>
      <path id="DejaVuSans-74" d="M 1172 4494 
L 1172 3500 
L 2356 3500 
L 2356 3053 
L 1172 3053 
L 1172 1153 
Q 1172 725 1289 603 
Q 1406 481 1766 481 
L 2356 481 
L 2356 0 
L 1766 0 
Q 1100 0 847 248 
Q 594 497 594 1153 
L 594 3053 
L 172 3053 
L 172 3500 
L 594 3500 
L 594 4494 
L 1172 4494 
z
" transform="scale(0.015625)"/>
      <path id="DejaVuSans-68" d="M 3513 2113 
L 3513 0 
L 2938 0 
L 2938 2094 
Q 2938 2591 2744 2837 
Q 2550 3084 2163 3084 
Q 1697 3084 1428 2787 
Q 1159 2491 1159 1978 
L 1159 0 
L 581 0 
L 581 4863 
L 1159 4863 
L 1159 2956 
Q 1366 3272 1645 3428 
Q 1925 3584 2291 3584 
Q 2894 3584 3203 3211 
Q 3513 2838 3513 2113 
z
" transform="scale(0.015625)"/>
     </defs>
     <use xlink:href="#DejaVuSans-47"/>
     <use xlink:href="#DejaVuSans-69" x="77.490234"/>
     <use xlink:href="#DejaVuSans-30" x="105.273438"/>
     <use xlink:href="#DejaVuSans-2f" x="168.896484"/>
     <use xlink:href="#DejaVuSans-30" x="202.587891"/>
     <use xlink:href="#DejaVuSans-20" x="266.210938"/>
     <use xlink:href="#DejaVuSans-2d" x="297.998047"/>
     <use xlink:href="#DejaVuSans-20" x="334.082031"/>
     <use xlink:href="#DejaVuSans-45" x="365.869141"/>
     <use xlink:href="#DejaVuSans-74" x="429.052734"/>
     <use xlink:href="#DejaVuSans-68" x="468.261719"/>
     <use xlink:href="#DejaVuSans-32" x="531.640625"/>
     <use xlink:href="#DejaVuSans-2f" x="595.263672"/>
     <use xlink:href="#DejaVuSans-30" x="628.955078"/>
    </g>
   </g>
   <g id="text_4">
    <g id="patch_5">
     <path d="M 721.537969 426.083438 
L 757.612031 426.083438 
L 757.612031 419.916562 
L 721.537969 419.916562 
z
" style="fill: #1c1c1c; opacity: 0.7"/>
    </g>
    <!-- Gi0/2 - Eth1 -->
    <g style="fill: #ffffff" transform="translate(721.717969 424.655625) scale(0.06 -0.06)">
     <use xlink:href="#DejaVuSans-47"/>
     <use xlink:href="#DejaVuSans-69" x="77.490234"/>
     <use xlink:href="#DejaVuSans-30" x="105.273438"/>
     <use xlink:href="#DejaVuSans-2f" x="168.896484"/>
     <use xlink:href="#DejaVuSans-32" x="202.587891"/>
     <use xlink:href="#DejaVuSans-20" x="266.210938"/>
     <use xlink:href="#DejaVuSans-2d" x="297.998047"/>
     <use xlink:href="#DejaVuSans-20" x="334.082031"/>
     <use xlink:href="#DejaVuSans-45" x="365.869141"/>
     <use xlink:href="#DejaVuSans-74" x="429.052734"/>
     <use xlink:href="#DejaVuSans-68" x="468.261719"/>
     <use xlink:href="#DejaVuSans-31" x="531.640625"/>
    </g>
   </g>
   <g id="text_5">
    <g id="patch_6">
     <path d="M 706.287494 360.536351 
L 751.830307 360.536351 
L 751.830307 354.369476 
L 706.287494 354.369476 
z
" style="fill: #1c1c1c; opacity: 0.7"/>
    </g>
    <!-- Eth1/0 - Eth1/0 -->
    <g style="fill: #ffffff" transform="translate(706.467494 359.108538) scale(0.06 -0.06)">
     <use xlink:href="#DejaVuSans-45"/>
     <use xlink:href="#DejaVuSans-74" x="63.183594"/>
     <use xlink:href="#DejaVuSans-68" x="102.392578"/>
     <use xlink:href="#DejaVuSans-31" x="165.771484"/>
     <use xlink:href="#DejaVuSans-2f" x="229.394531"/>
     <use xlink:href="#DejaVuSans-30" x="263.085938"/>
     <use xlink:href="#DejaVuSans-20" x="326.708984"/>
     <use xlink:href="#DejaVuSans-2d" x="358.496094"/>
     <use xlink:href="#DejaVuSans-20" x="394.580078"/>
     <use xlink:href="#DejaVuSans-45" x="426.367188"/>
     <use xlink:href="#DejaVuSans-74" x="489.550781"/>
     <use xlink:href="#DejaVuSans-68" x="528.759766"/>
     <use xlink:href="#DejaVuSans-31" x="592.138672"/>
     <use xlink:href="#DejaVuSans-2f" x="655.761719"/>
     <use xlink:href="#DejaVuSans-30" x="689.453125"/>
    </g>
   </g>
   <g id="text_6">
    <g id="patch_7">
     <path d="M 752.922245 614.818751 
L 786.787557 614.818751 
L 786.787557 608.651876 
L 752.922245 608.651876 
z
" style="fill: #1c1c1c; opacity: 0.7"/>
    </g>
    <!-- Eth2 - Eth1 -->
    <g style="fill: #ffffff" transform="translate(753.102245 613.390939) scale(0.06 -0.06)">
     <use xlink:href="#DejaVuSans-45"/>
     <use xlink:href="#DejaVuSans-74" x="63.183594"/>
     <use xlink:href="#DejaVuSans-68" x="102.392578"/>
     <use xlink:href="#DejaVuSans-32" x="165.771484"/>
     <use xlink:href="#DejaVuSans-20" x="229.394531"/>
     <use xlink:href="#DejaVuSans-2d" x="261.181641"/>
     <use xlink:href="#DejaVuSans-20" x="297.265625"/>
     <use xlink:href="#DejaVuSans-45" x="329.052734"/>
     <use xlink:href="#DejaVuSans-74" x="392.236328"/>
     <use xlink:href="#DejaVuSans-68" x="431.445312"/>
     <use xlink:href="#DejaVuSans-31" x="494.824219"/>
    </g>
   </g>
   <g id="text_7">
    <g id="patch_8">
     <path d="M 558.783443 360.536351 
L 592.648756 360.536351 
L 592.648756 354.369476 
L 558.783443 354.369476 
z
" style="fill: #1c1c1c; opacity: 0.7"/>
    </g>
    <!-- Eth3 - Eth1 -->
    <g style="fill: #ffffff" transform="translate(558.963443 359.108538) scale(0.06 -0.06)">
     <use xlink:href="#DejaVuSans-45"/>
     <use xlink:href="#DejaVuSans-74" x="63.183594"/>
     <use xlink:href="#DejaVuSans-68" x="102.392578"/>
     <use xlink:href="#DejaVuSans-33" x="165.771484"/>
     <use xlink:href="#DejaVuSans-20" x="229.394531"/>
     <use xlink:href="#DejaVuSans-2d" x="261.181641"/>
     <use xlink:href="#DejaVuSans-20" x="297.265625"/>
     <use xlink:href="#DejaVuSans-45" x="329.052734"/>
     <use xlink:href="#DejaVuSans-74" x="392.236328"/>
     <use xlink:href="#DejaVuSans-68" x="431.445312"/>
     <use xlink:href="#DejaVuSans-31" x="494.824219"/>
    </g>
   </g>
   <g id="text_8">
    <g id="patch_9">
     <path d="M 487.335995 71.377074 
L 529.248807 71.377074 
L 529.248807 65.210199 
L 487.335995 65.210199 
z
" style="fill: #1c1c1c; opacity: 0.7"/>
    </g>
    <!-- Eth1/2 - Gi0/0 -->
    <g style="fill: #ffffff" transform="translate(487.515995 69.949261) scale(0.06 -0.06)">
     <use xlink:href="#DejaVuSans-45"/>
     <use xlink:href="#DejaVuSans-74" x="63.183594"/>
     <use xlink:href="#DejaVuSans-68" x="102.392578"/>
     <use xlink:href="#DejaVuSans-31" x="165.771484"/>
     <use xlink:href="#DejaVuSans-2f" x="229.394531"/>
     <use xlink:href="#DejaVuSans-32" x="263.085938"/>
     <use xlink:href="#DejaVuSans-20" x="326.708984"/>
     <use xlink:href="#DejaVuSans-2d" x="358.496094"/>
     <use xlink:href="#DejaVuSans-20" x="394.580078"/>
     <use xlink:href="#DejaVuSans-47" x="426.367188"/>
     <use xlink:href="#DejaVuSans-69" x="503.857422"/>
     <use xlink:href="#DejaVuSans-30" x="531.640625"/>
     <use xlink:href="#DejaVuSans-2f" x="595.263672"/>
     <use xlink:href="#DejaVuSans-30" x="628.955078"/>
    </g>
   </g>
   <g id="text_9">
    <g id="patch_10">
     <path d="M 414.688344 549.271665 
L 448.553656 549.271665 
L 448.553656 543.10479 
L 414.688344 543.10479 
z
" style="fill: #1c1c1c; opacity: 0.7"/>
    </g>
    <!-- Eth3 - Eth3 -->
    <g style="fill: #ffffff" transform="translate(414.868344 547.843852) scale(0.06 -0.06)">
     <use xlink:href="#DejaVuSans-45"/>
     <use xlink:href="#DejaVuSans-74" x="63.183594"/>
     <use xlink:href="#DejaVuSans-68" x="102.392578"/>
     <use xlink:href="#DejaVuSans-33" x="165.771484"/>
     <use xlink:href="#DejaVuSans-20" x="229.394531"/>
     <use xlink:href="#DejaVuSans-2d" x="261.181641"/>
     <use xlink:href="#DejaVuSans-20" x="297.265625"/>
     <use xlink:href="#DejaVuSans-45" x="329.052734"/>
     <use xlink:href="#DejaVuSans-74" x="392.236328"/>
     <use xlink:href="#DejaVuSans-68" x="431.445312"/>
     <use xlink:href="#DejaVuSans-33" x="494.824219"/>
    </g>
   </g>
   <g id="text_10">
    <g id="patch_11">
     <path d="M 592.450094 136.924161 
L 630.732906 136.924161 
L 630.732906 130.757286 
L 592.450094 130.757286 
z
" style="fill: #1c1c1c; opacity: 0.7"/>
    </g>
    <!-- Gi0/1 - Gi0/0 -->
    <g style="fill: #ffffff" transform="translate(592.630094 135.496348) scale(0.06 -0.06)">
     <use xlink:href="#DejaVuSans-47"/>
     <use xlink:href="#DejaVuSans-69" x="77.490234"/>
     <use xlink:href="#DejaVuSans-30" x="105.273438"/>
     <use xlink:href="#DejaVuSans-2f" x="168.896484"/>
     <use xlink:href="#DejaVuSans-31" x="202.587891"/>
     <use xlink:href="#DejaVuSans-20" x="266.210938"/>
     <use xlink:href="#DejaVuSans-2d" x="297.998047"/>
     <use xlink:href="#DejaVuSans-20" x="334.082031"/>
     <use xlink:href="#DejaVuSans-47" x="365.869141"/>
     <use xlink:href="#DejaVuSans-69" x="443.359375"/>
     <use xlink:href="#DejaVuSans-30" x="471.142578"/>
     <use xlink:href="#DejaVuSans-2f" x="534.765625"/>
     <use xlink:href="#DejaVuSans-30" x="568.457031"/>
    </g>
   </g>
   <g id="text_11">
    <g id="patch_12">
     <path d="M 295.012193 325.659475 
L 333.295006 325.659475 
L 333.295006 319.4926 
L 295.012193 319.4926 
z
" style="fill: #1c1c1c; opacity: 0.7"/>
    </g>
    <!-- Gi0/3 - Gi0/0 -->
    <g style="fill: #ffffff" transform="translate(295.192193 324.231662) scale(0.06 -0.06)">
     <use xlink:href="#DejaVuSans-47"/>
     <use xlink:href="#DejaVuSans-69" x="77.490234"/>
     <use xlink:href="#DejaVuSans-30" x="105.273438"/>
     <use xlink:href="#DejaVuSans-2f" x="168.896484"/>
     <use xlink:href="#DejaVuSans-33" x="202.587891"/>
     <use xlink:href="#DejaVuSans-20" x="266.210938"/>
     <use xlink:href="#DejaVuSans-2d" x="297.998047"/>
     <use xlink:href="#DejaVuSans-20" x="334.082031"/>
     <use xlink:href="#DejaVuSans-47" x="365.869141"/>
     <use xlink:href="#DejaVuSans-69" x="443.359375"/>
     <use xlink:href="#DejaVuSans-30" x="471.142578"/>
     <use xlink:href="#DejaVuSans-2f" x="534.765625"/>
     <use xlink:href="#DejaVuSans-30" x="568.457031"/>
    </g>
   </g>
   <g id="text_12">
    <g id="patch_13">
     <path d="M 371.683594 426.083437 
L 409.966406 426.083437 
L 409.966406 419.916562 
L 371.683594 419.916562 
z
" style="fill: #1c1c1c; opacity: 0.7"/>
    </g>
    <!-- Gi0/2 - Gi0/0 -->
    <g style="fill: #ffffff" transform="translate(371.863594 424.655625) scale(0.06 -0.06)">
     <use xlink:href="#DejaVuSans-47"/>
     <use xlink:href="#DejaVuSans-69" x="77.490234"/>
     <use xlink:href="#DejaVuSans-30" x="105.273438"/>
     <use xlink:href="#DejaVuSans-2f" x="168.896484"/>
     <use xlink:href="#DejaVuSans-32" x="202.587891"/>
     <use xlink:href="#DejaVuSans-20" x="266.210938"/>
     <use xlink:href="#DejaVuSans-2d" x="297.998047"/>
     <use xlink:href="#DejaVuSans-20" x="334.082031"/>
     <use xlink:href="#DejaVuSans-47" x="365.869141"/>
     <use xlink:href="#DejaVuSans-69" x="443.359375"/>
     <use xlink:href="#DejaVuSans-30" x="471.142578"/>
     <use xlink:href="#DejaVuSans-2f" x="534.765625"/>
     <use xlink:href="#DejaVuSans-30" x="568.457031"/>
    </g>
   </g>
   <g id="text_13">
    <g id="patch_14">
     <path d="M 515.778693 368.442297 
L 554.061505 368.442297 
L 554.061505 362.275422 
L 515.778693 362.275422 
z
" style="fill: #1c1c1c; opacity: 0.7"/>
    </g>
    <!-- Gi0/2 - Gi0/1 -->
    <g style="fill: #ffffff" transform="translate(515.958693 367.014484) scale(0.06 -0.06)">
     <use xlink:href="#DejaVuSans-47"/>
     <use xlink:href="#DejaVuSans-69" x="77.490234"/>
     <use xlink:href="#DejaVuSans-30" x="105.273438"/>
     <use xlink:href="#DejaVuSans-2f" x="168.896484"/>
     <use xlink:href="#DejaVuSans-32" x="202.587891"/>
     <use xlink:href="#DejaVuSans-20" x="266.210938"/>
     <use xlink:href="#DejaVuSans-2d" x="297.998047"/>
     <use xlink:href="#DejaVuSans-20" x="334.082031"/>
     <use xlink:href="#DejaVuSans-47" x="365.869141"/>
     <use xlink:href="#DejaVuSans-69" x="443.359375"/>
     <use xlink:href="#DejaVuSans-30" x="471.142578"/>
     <use xlink:href="#DejaVuSans-2f" x="534.765625"/>
     <use xlink:href="#DejaVuSans-31" x="568.457031"/>
    </g>
   </g>
   <g id="text_14">
    <g id="patch_15">
     <path d="M 592.450094 468.86626 
L 630.732906 468.86626 
L 630.732906 462.699385 
L 592.450094 462.699385 
z
" style="fill: #1c1c1c; opacity: 0.7"/>
    </g>
    <!-- Gi0/1 - Gi0/1 -->
    <g style="fill: #ffffff" transform="translate(592.630094 467.438447) scale(0.06 -0.06)">
     <use xlink:href="#DejaVuSans-47"/>
     <use xlink:href="#DejaVuSans-69" x="77.490234"/>
     <use xlink:href="#DejaVuSans-30" x="105.273438"/>
     <use xlink:href="#DejaVuSans-2f" x="168.896484"/>
     <use xlink:href="#DejaVuSans-31" x="202.587891"/>
     <use xlink:href="#DejaVuSans-20" x="266.210938"/>
     <use xlink:href="#DejaVuSans-2d" x="297.998047"/>
     <use xlink:href="#DejaVuSans-20" x="334.082031"/>
     <use xlink:href="#DejaVuSans-47" x="365.869141"/>
     <use xlink:href="#DejaVuSans-69" x="443.359375"/>
     <use xlink:href="#DejaVuSans-30" x="471.142578"/>
     <use xlink:href="#DejaVuSans-2f" x="534.765625"/>
     <use xlink:href="#DejaVuSans-31" x="568.457031"/>
    </g>
   </g>
   <g id="text_15">
    <g id="patch_16">
     <path d="M 295.012193 657.601574 
L 333.295006 657.601574 
L 333.295006 651.434699 
L 295.012193 651.434699 
z
" style="fill: #1c1c1c; opacity: 0.7"/>
    </g>
    <!-- Gi0/2 - Gi0/2 -->
    <g style="fill: #ffffff" transform="translate(295.192193 656.173761) scale(0.06 -0.06)">
     <use xlink:href="#DejaVuSans-47"/>
     <use xlink:href="#DejaVuSans-69" x="77.490234"/>
     <use xlink:href="#DejaVuSans-30" x="105.273438"/>
     <use xlink:href="#DejaVuSans-2f" x="168.896484"/>
     <use xlink:href="#DejaVuSans-32" x="202.587891"/>
     <use xlink:href="#DejaVuSans-20" x="266.210938"/>
     <use xlink:href="#DejaVuSans-2d" x="297.998047"/>
     <use xlink:href="#DejaVuSans-20" x="334.082031"/>
     <use xlink:href="#DejaVuSans-47" x="365.869141"/>
     <use xlink:href="#DejaVuSans-69" x="443.359375"/>
     <use xlink:href="#DejaVuSans-30" x="471.142578"/>
     <use xlink:href="#DejaVuSans-2f" x="534.765625"/>
     <use xlink:href="#DejaVuSans-32" x="568.457031"/>
    </g>
   </g>
   <g id="line2d_1">
    <path d="M 565.2 423 
L 42.075 423 
" clip-path="url(#p15797348c3)" style="fill: none; stroke: #ffffff; stroke-opacity: 0.6; stroke-linecap: square"/>
   </g>
   <g id="line2d_2">
    <path d="M 565.2 423 
L 1088.325 423 
" clip-path="url(#p15797348c3)" style="fill: none; stroke: #ffffff; stroke-opacity: 0.6; stroke-linecap: square"/>
   </g>
   <g id="line2d_3">
    <path d="M 565.2 423 
L 832.358 669.376455 
" clip-path="url(#p15797348c3)" style="fill: none; stroke: #ffffff; stroke-opacity: 0.6; stroke-linecap: square"/>
   </g>
   <g id="line2d_4">
    <path d="M 565.2 423 
L 913.95 423 
" clip-path="url(#p15797348c3)" style="fill: none; stroke: #ffffff; stroke-opacity: 0.6; stroke-linecap: square"/>
   </g>
   <g id="line2d_5">
    <path d="M 832.358 669.376455 
L 625.759802 45.529372 
" clip-path="url(#p15797348c3)" style="fill: none; stroke: #ffffff; stroke-opacity: 0.6; stroke-linecap: square"/>
   </g>
   <g id="line2d_6">
    <path d="M 913.95 423 
L 625.759802 800.470628 
" clip-path="url(#p15797348c3)" style="fill: none; stroke: #ffffff; stroke-opacity: 0.6; stroke-linecap: square"/>
   </g>
   <g id="line2d_7">
    <path d="M 913.95 423 
L 237.482199 291.905827 
" clip-path="url(#p15797348c3)" style="fill: none; stroke: #ffffff; stroke-opacity: 0.6; stroke-linecap: square"/>
   </g>
   <g id="line2d_8">
    <path d="M 625.759802 45.529372 
L 390.825 91.057901 
" clip-path="url(#p15797348c3)" style="fill: none; stroke: #ffffff; stroke-opacity: 0.6; stroke-linecap: square"/>
   </g>
   <g id="line2d_9">
    <path d="M 625.759802 800.470628 
L 237.482199 291.905827 
" clip-path="url(#p15797348c3)" style="fill: none; stroke: #ffffff; stroke-opacity: 0.6; stroke-linecap: square"/>
   </g>
   <g id="line2d_10">
    <path d="M 390.825 91.057901 
L 832.358 176.623545 
" clip-path="url(#p15797348c3)" style="fill: none; stroke: #ffffff; stroke-opacity: 0.6; stroke-linecap: square"/>
   </g>
   <g id="line2d_11">
    <path d="M 390.825 91.057901 
L 237.482199 554.094173 
" clip-path="url(#p15797348c3)" style="fill: none; stroke: #ffffff; stroke-opacity: 0.6; stroke-linecap: square"/>
   </g>
   <g id="line2d_12">
    <path d="M 390.825 91.057901 
L 390.825 754.942099 
" clip-path="url(#p15797348c3)" style="fill: none; stroke: #ffffff; stroke-opacity: 0.6; stroke-linecap: square"/>
   </g>
   <g id="line2d_13">
    <path d="M 832.358 176.623545 
L 237.482199 554.094173 
" clip-path="url(#p15797348c3)" style="fill: none; stroke: #ffffff; stroke-opacity: 0.6; stroke-linecap: square"/>
   </g>
   <g id="line2d_14">
    <path d="M 832.358 176.623545 
L 390.825 754.942099 
" clip-path="url(#p15797348c3)" style="fill: none; stroke: #ffffff; stroke-opacity: 0.6; stroke-linecap: square"/>
   </g>
   <g id="line2d_15">
    <path d="M 237.482199 554.094173 
L 390.825 754.942099 
" clip-path="url(#p15797348c3)" style="fill: none; stroke: #ffffff; stroke-opacity: 0.6; stroke-linecap: square"/>
   </g>
   <g id="patch_17">
    <path d="M 547.7625 428.749406 
L 582.6375 428.749406 
L 582.6375 417.250594 
L 547.7625 417.250594 
z
" clip-path="url(#p15797348c3)" style="fill: #4b77be; stroke: #ffffff; stroke-linejoin: miter"/>
   </g>
   <g id="patch_18">
    <path d="M 896.5125 428.749406 
L 931.3875 428.749406 
L 931.3875 417.250594 
L 896.5125 417.250594 
z
" clip-path="url(#p15797348c3)" style="fill: #4b77be; stroke: #ffffff; stroke-linejoin: miter"/>
   </g>
   <g id="patch_19">
    <path d="M 814.9205 182.372951 
L 849.7955 182.372951 
L 849.7955 170.87414 
L 814.9205 170.87414 
z
" clip-path="url(#p15797348c3)" style="fill: #4b77be; stroke: #ffffff; stroke-linejoin: miter"/>
   </g>
   <g id="patch_20">
    <path d="M 608.322302 51.278778 
L 643.197302 51.278778 
L 643.197302 39.779966 
L 608.322302 39.779966 
z
" clip-path="url(#p15797348c3)" style="fill: #4b77be; stroke: #ffffff; stroke-linejoin: miter"/>
   </g>
   <g id="patch_21">
    <path d="M 373.3875 96.807306 
L 408.2625 96.807306 
L 408.2625 85.308495 
L 373.3875 85.308495 
z
" clip-path="url(#p15797348c3)" style="fill: #4b77be; stroke: #ffffff; stroke-linejoin: miter"/>
   </g>
   <g id="patch_22">
    <path d="M 220.044699 297.655232 
L 254.919699 297.655232 
L 254.919699 286.156421 
L 220.044699 286.156421 
z
" clip-path="url(#p15797348c3)" style="fill: #4b77be; stroke: #ffffff; stroke-linejoin: miter"/>
   </g>
   <g id="patch_23">
    <path d="M 220.044699 559.843579 
L 254.919699 559.843579 
L 254.919699 548.344768 
L 220.044699 548.344768 
z
" clip-path="url(#p15797348c3)" style="fill: #4b77be; stroke: #ffffff; stroke-linejoin: miter"/>
   </g>
   <g id="patch_24">
    <path d="M 373.3875 760.691505 
L 408.2625 760.691505 
L 408.2625 749.192694 
L 373.3875 749.192694 
z
" clip-path="url(#p15797348c3)" style="fill: #4b77be; stroke: #ffffff; stroke-linejoin: miter"/>
   </g>
   <g id="patch_25">
    <path d="M 608.322302 806.220034 
L 643.197302 806.220034 
L 643.197302 794.721222 
L 608.322302 794.721222 
z
" clip-path="url(#p15797348c3)" style="fill: #4b77be; stroke: #ffffff; stroke-linejoin: miter"/>
   </g>
   <g id="patch_26">
    <path d="M 814.9205 675.12586 
L 849.7955 675.12586 
L 849.7955 663.627049 
L 814.9205 663.627049 
z
" clip-path="url(#p15797348c3)" style="fill: #4b77be; stroke: #ffffff; stroke-linejoin: miter"/>
   </g>
   <g id="patch_27">
    <path d="M 1070.8875 428.749406 
L 1105.7625 428.749406 
L 1105.7625 417.250594 
L 1070.8875 417.250594 
z
" clip-path="url(#p15797348c3)" style="fill: #4b77be; stroke: #ffffff; stroke-linejoin: miter"/>
   </g>
   <g id="patch_28">
    <path d="M 24.6375 428.749406 
L 59.5125 428.749406 
L 59.5125 417.250594 
L 24.6375 417.250594 
z
" clip-path="url(#p15797348c3)" style="fill: #4b77be; stroke: #ffffff; stroke-linejoin: miter"/>
   </g>
   <g id="text_16">
    <g id="patch_29">
     <path d="M 538.46625 427.35125 
L 591.93375 427.35125 
L 591.93375 418.64875 
L 538.46625 418.64875 
z
" style="fill: #4b77be"/>
    </g>
    <!-- usa1-core-01 -->
    <g style="fill: #ffffff" transform="translate(538.94625 425.2075) scale(0.08 -0.08)">
     <defs>
      <path id="DejaVuSans-75" d="M 544 1381 
L 544 3500 
L 1119 3500 
L 1119 1403 
Q 1119 906 1312 657 
Q 1506 409 1894 409 
Q 2359 409 2629 706 
Q 2900 1003 2900 1516 
L 2900 3500 
L 3475 3500 
L 3475 0 
L 2900 0 
L 2900 538 
Q 2691 219 2414 64 
Q 2138 -91 1772 -91 
Q 1169 -91 856 284 
Q 544 659 544 1381 
z
M 1991 3584 
L 1991 3584 
z
" transform="scale(0.015625)"/>
      <path id="DejaVuSans-73" d="M 2834 3397 
L 2834 2853 
Q 2591 2978 2328 3040 
Q 2066 3103 1784 3103 
Q 1356 3103 1142 2972 
Q 928 2841 928 2578 
Q 928 2378 1081 2264 
Q 1234 2150 1697 2047 
L 1894 2003 
Q 2506 1872 2764 1633 
Q 3022 1394 3022 966 
Q 3022 478 2636 193 
Q 2250 -91 1575 -91 
Q 1294 -91 989 -36 
Q 684 19 347 128 
L 347 722 
Q 666 556 975 473 
Q 1284 391 1588 391 
Q 1994 391 2212 530 
Q 2431 669 2431 922 
Q 2431 1156 2273 1281 
Q 2116 1406 1581 1522 
L 1381 1569 
Q 847 1681 609 1914 
Q 372 2147 372 2553 
Q 372 3047 722 3315 
Q 1072 3584 1716 3584 
Q 2034 3584 2315 3537 
Q 2597 3491 2834 3397 
z
" transform="scale(0.015625)"/>
      <path id="DejaVuSans-61" d="M 2194 1759 
Q 1497 1759 1228 1600 
Q 959 1441 959 1056 
Q 959 750 1161 570 
Q 1363 391 1709 391 
Q 2188 391 2477 730 
Q 2766 1069 2766 1631 
L 2766 1759 
L 2194 1759 
z
M 3341 1997 
L 3341 0 
L 2766 0 
L 2766 531 
Q 2569 213 2275 61 
Q 1981 -91 1556 -91 
Q 1019 -91 701 211 
Q 384 513 384 1019 
Q 384 1609 779 1909 
Q 1175 2209 1959 2209 
L 2766 2209 
L 2766 2266 
Q 2766 2663 2505 2880 
Q 2244 3097 1772 3097 
Q 1472 3097 1187 3025 
Q 903 2953 641 2809 
L 641 3341 
Q 956 3463 1253 3523 
Q 1550 3584 1831 3584 
Q 2591 3584 2966 3190 
Q 3341 2797 3341 1997 
z
" transform="scale(0.015625)"/>
      <path id="DejaVuSans-63" d="M 3122 3366 
L 3122 2828 
Q 2878 2963 2633 3030 
Q 2388 3097 2138 3097 
Q 1578 3097 1268 2742 
Q 959 2388 959 1747 
Q 959 1106 1268 751 
Q 1578 397 2138 397 
Q 2388 397 2633 464 
Q 2878 531 3122 666 
L 3122 134 
Q 2881 22 2623 -34 
Q 2366 -91 2075 -91 
Q 1284 -91 818 406 
Q 353 903 353 1747 
Q 353 2603 823 3093 
Q 1294 3584 2113 3584 
Q 2378 3584 2631 3529 
Q 2884 3475 3122 3366 
z
" transform="scale(0.015625)"/>
      <path id="DejaVuSans-6f" d="M 1959 3097 
Q 1497 3097 1228 2736 
Q 959 2375 959 1747 
Q 959 1119 1226 758 
Q 1494 397 1959 397 
Q 2419 397 2687 759 
Q 2956 1122 2956 1747 
Q 2956 2369 2687 2733 
Q 2419 3097 1959 3097 
z
M 1959 3584 
Q 2709 3584 3137 3096 
Q 3566 2609 3566 1747 
Q 3566 888 3137 398 
Q 2709 -91 1959 -91 
Q 1206 -91 779 398 
Q 353 888 353 1747 
Q 353 2609 779 3096 
Q 1206 3584 1959 3584 
z
" transform="scale(0.015625)"/>
      <path id="DejaVuSans-72" d="M 2631 2963 
Q 2534 3019 2420 3045 
Q 2306 3072 2169 3072 
Q 1681 3072 1420 2755 
Q 1159 2438 1159 1844 
L 1159 0 
L 581 0 
L 581 3500 
L 1159 3500 
L 1159 2956 
Q 1341 3275 1631 3429 
Q 1922 3584 2338 3584 
Q 2397 3584 2469 3576 
Q 2541 3569 2628 3553 
L 2631 2963 
z
" transform="scale(0.015625)"/>
      <path id="DejaVuSans-65" d="M 3597 1894 
L 3597 1613 
L 953 1613 
Q 991 1019 1311 708 
Q 1631 397 2203 397 
Q 2534 397 2845 478 
Q 3156 559 3463 722 
L 3463 178 
Q 3153 47 2828 -22 
Q 2503 -91 2169 -91 
Q 1331 -91 842 396 
Q 353 884 353 1716 
Q 353 2575 817 3079 
Q 1281 3584 2069 3584 
Q 2775 3584 3186 3129 
Q 3597 2675 3597 1894 
z
M 3022 2063 
Q 3016 2534 2758 2815 
Q 2500 3097 2075 3097 
Q 1594 3097 1305 2825 
Q 1016 2553 972 2059 
L 3022 2063 
z
" transform="scale(0.015625)"/>
     </defs>
     <use xlink:href="#DejaVuSans-75"/>
     <use xlink:href="#DejaVuSans-73" x="63.378906"/>
     <use xlink:href="#DejaVuSans-61" x="115.478516"/>
     <use xlink:href="#DejaVuSans-31" x="176.757812"/>
     <use xlink:href="#DejaVuSans-2d" x="240.380859"/>
     <use xlink:href="#DejaVuSans-63" x="276.464844"/>
     <use xlink:href="#DejaVuSans-6f" x="331.445312"/>
     <use xlink:href="#DejaVuSans-72" x="392.626953"/>
     <use xlink:href="#DejaVuSans-65" x="431.490234"/>
     <use xlink:href="#DejaVuSans-2d" x="493.013672"/>
     <use xlink:href="#DejaVuSans-30" x="529.097656"/>
     <use xlink:href="#DejaVuSans-31" x="592.720703"/>
    </g>
   </g>
   <g id="text_17">
    <g id="patch_30">
     <path d="M 898.171875 427.35125 
L 929.728125 427.35125 
L 929.728125 418.64875 
L 898.171875 418.64875 
z
" style="fill: #4b77be"/>
    </g>
    <!-- arista-1 -->
    <g style="fill: #ffffff" transform="translate(898.651875 425.2075) scale(0.08 -0.08)">
     <use xlink:href="#DejaVuSans-61"/>
     <use xlink:href="#DejaVuSans-72" x="61.279297"/>
     <use xlink:href="#DejaVuSans-69" x="102.392578"/>
     <use xlink:href="#DejaVuSans-73" x="130.175781"/>
     <use xlink:href="#DejaVuSans-74" x="182.275391"/>
     <use xlink:href="#DejaVuSans-61" x="221.484375"/>
     <use xlink:href="#DejaVuSans-2d" x="282.763672"/>
     <use xlink:href="#DejaVuSans-31" x="318.847656"/>
    </g>
   </g>
   <g id="text_18">
    <g id="patch_31">
     <path d="M 805.62425 180.974795 
L 859.09175 180.974795 
L 859.09175 172.272295 
L 805.62425 172.272295 
z
" style="fill: #4b77be"/>
    </g>
    <!-- usa2-core-02 -->
    <g style="fill: #ffffff" transform="translate(806.10425 178.831045) scale(0.08 -0.08)">
     <use xlink:href="#DejaVuSans-75"/>
     <use xlink:href="#DejaVuSans-73" x="63.378906"/>
     <use xlink:href="#DejaVuSans-61" x="115.478516"/>
     <use xlink:href="#DejaVuSans-32" x="176.757812"/>
     <use xlink:href="#DejaVuSans-2d" x="240.380859"/>
     <use xlink:href="#DejaVuSans-63" x="276.464844"/>
     <use xlink:href="#DejaVuSans-6f" x="331.445312"/>
     <use xlink:href="#DejaVuSans-72" x="392.626953"/>
     <use xlink:href="#DejaVuSans-65" x="431.490234"/>
     <use xlink:href="#DejaVuSans-2d" x="493.013672"/>
     <use xlink:href="#DejaVuSans-30" x="529.097656"/>
     <use xlink:href="#DejaVuSans-32" x="592.720703"/>
    </g>
   </g>
   <g id="text_19">
    <g id="patch_32">
     <path d="M 605.631677 49.880622 
L 645.887927 49.880622 
L 645.887927 41.178122 
L 605.631677 41.178122 
z
" style="fill: #4b77be"/>
    </g>
    <!-- usa2-rtr-1 -->
    <g style="fill: #ffffff" transform="translate(606.111677 47.736872) scale(0.08 -0.08)">
     <use xlink:href="#DejaVuSans-75"/>
     <use xlink:href="#DejaVuSans-73" x="63.378906"/>
     <use xlink:href="#DejaVuSans-61" x="115.478516"/>
     <use xlink:href="#DejaVuSans-32" x="176.757812"/>
     <use xlink:href="#DejaVuSans-2d" x="240.380859"/>
     <use xlink:href="#DejaVuSans-72" x="276.464844"/>
     <use xlink:href="#DejaVuSans-74" x="317.578125"/>
     <use xlink:href="#DejaVuSans-72" x="356.787109"/>
     <use xlink:href="#DejaVuSans-2d" x="391.525391"/>
     <use xlink:href="#DejaVuSans-31" x="427.609375"/>
    </g>
   </g>
   <g id="text_20">
    <g id="patch_33">
     <path d="M 364.09125 95.409151 
L 417.55875 95.409151 
L 417.55875 86.706651 
L 364.09125 86.706651 
z
" style="fill: #4b77be"/>
    </g>
    <!-- usa2-core-01 -->
    <g style="fill: #ffffff" transform="translate(364.57125 93.265401) scale(0.08 -0.08)">
     <use xlink:href="#DejaVuSans-75"/>
     <use xlink:href="#DejaVuSans-73" x="63.378906"/>
     <use xlink:href="#DejaVuSans-61" x="115.478516"/>
     <use xlink:href="#DejaVuSans-32" x="176.757812"/>
     <use xlink:href="#DejaVuSans-2d" x="240.380859"/>
     <use xlink:href="#DejaVuSans-63" x="276.464844"/>
     <use xlink:href="#DejaVuSans-6f" x="331.445312"/>
     <use xlink:href="#DejaVuSans-72" x="392.626953"/>
     <use xlink:href="#DejaVuSans-65" x="431.490234"/>
     <use xlink:href="#DejaVuSans-2d" x="493.013672"/>
     <use xlink:href="#DejaVuSans-30" x="529.097656"/>
     <use xlink:href="#DejaVuSans-31" x="592.720703"/>
    </g>
   </g>
   <g id="text_21">
    <g id="patch_34">
     <path d="M 221.704074 296.257077 
L 253.260324 296.257077 
L 253.260324 287.554577 
L 221.704074 287.554577 
z
" style="fill: #4b77be"/>
    </g>
    <!-- arista-2 -->
    <g style="fill: #ffffff" transform="translate(222.184074 294.113327) scale(0.08 -0.08)">
     <use xlink:href="#DejaVuSans-61"/>
     <use xlink:href="#DejaVuSans-72" x="61.279297"/>
     <use xlink:href="#DejaVuSans-69" x="102.392578"/>
     <use xlink:href="#DejaVuSans-73" x="130.175781"/>
     <use xlink:href="#DejaVuSans-74" x="182.275391"/>
     <use xlink:href="#DejaVuSans-61" x="221.484375"/>
     <use xlink:href="#DejaVuSans-2d" x="282.763672"/>
     <use xlink:href="#DejaVuSans-32" x="318.847656"/>
    </g>
   </g>
   <g id="text_22">
    <g id="patch_35">
     <path d="M 205.932199 558.445423 
L 269.032199 558.445423 
L 269.032199 549.742923 
L 205.932199 549.742923 
z
" style="fill: #4b77be"/>
    </g>
    <!-- usa2-access-02 -->
    <g style="fill: #ffffff" transform="translate(206.412199 556.301673) scale(0.08 -0.08)">
     <use xlink:href="#DejaVuSans-75"/>
     <use xlink:href="#DejaVuSans-73" x="63.378906"/>
     <use xlink:href="#DejaVuSans-61" x="115.478516"/>
     <use xlink:href="#DejaVuSans-32" x="176.757812"/>
     <use xlink:href="#DejaVuSans-2d" x="240.380859"/>
     <use xlink:href="#DejaVuSans-61" x="276.464844"/>
     <use xlink:href="#DejaVuSans-63" x="337.744141"/>
     <use xlink:href="#DejaVuSans-63" x="392.724609"/>
     <use xlink:href="#DejaVuSans-65" x="447.705078"/>
     <use xlink:href="#DejaVuSans-73" x="509.228516"/>
     <use xlink:href="#DejaVuSans-73" x="561.328125"/>
     <use xlink:href="#DejaVuSans-2d" x="613.427734"/>
     <use xlink:href="#DejaVuSans-30" x="649.511719"/>
     <use xlink:href="#DejaVuSans-32" x="713.134766"/>
    </g>
   </g>
   <g id="text_23">
    <g id="patch_36">
     <path d="M 359.275 759.293349 
L 422.375 759.293349 
L 422.375 750.590849 
L 359.275 750.590849 
z
" style="fill: #4b77be"/>
    </g>
    <!-- usa2-access-01 -->
    <g style="fill: #ffffff" transform="translate(359.755 757.149599) scale(0.08 -0.08)">
     <use xlink:href="#DejaVuSans-75"/>
     <use xlink:href="#DejaVuSans-73" x="63.378906"/>
     <use xlink:href="#DejaVuSans-61" x="115.478516"/>
     <use xlink:href="#DejaVuSans-32" x="176.757812"/>
     <use xlink:href="#DejaVuSans-2d" x="240.380859"/>
     <use xlink:href="#DejaVuSans-61" x="276.464844"/>
     <use xlink:href="#DejaVuSans-63" x="337.744141"/>
     <use xlink:href="#DejaVuSans-63" x="392.724609"/>
     <use xlink:href="#DejaVuSans-65" x="447.705078"/>
     <use xlink:href="#DejaVuSans-73" x="509.228516"/>
     <use xlink:href="#DejaVuSans-73" x="561.328125"/>
     <use xlink:href="#DejaVuSans-2d" x="613.427734"/>
     <use xlink:href="#DejaVuSans-30" x="649.511719"/>
     <use xlink:href="#DejaVuSans-31" x="713.134766"/>
    </g>
   </g>
   <g id="text_24">
    <g id="patch_37">
     <path d="M 609.981677 804.821878 
L 641.537927 804.821878 
L 641.537927 796.119378 
L 609.981677 796.119378 
z
" style="fill: #4b77be"/>
    </g>
    <!-- arista-3 -->
    <g style="fill: #ffffff" transform="translate(610.461677 802.678128) scale(0.08 -0.08)">
     <use xlink:href="#DejaVuSans-61"/>
     <use xlink:href="#DejaVuSans-72" x="61.279297"/>
     <use xlink:href="#DejaVuSans-69" x="102.392578"/>
     <use xlink:href="#DejaVuSans-73" x="130.175781"/>
     <use xlink:href="#DejaVuSans-74" x="182.275391"/>
     <use xlink:href="#DejaVuSans-61" x="221.484375"/>
     <use xlink:href="#DejaVuSans-2d" x="282.763672"/>
     <use xlink:href="#DejaVuSans-33" x="318.847656"/>
    </g>
   </g>
   <g id="text_25">
    <g id="patch_38">
     <path d="M 812.229875 673.727705 
L 852.486125 673.727705 
L 852.486125 665.025205 
L 812.229875 665.025205 
z
" style="fill: #4b77be"/>
    </g>
    <!-- usa1-rtr-1 -->
    <g style="fill: #ffffff" transform="translate(812.709875 671.583955) scale(0.08 -0.08)">
     <use xlink:href="#DejaVuSans-75"/>
     <use xlink:href="#DejaVuSans-73" x="63.378906"/>
     <use xlink:href="#DejaVuSans-61" x="115.478516"/>
     <use xlink:href="#DejaVuSans-31" x="176.757812"/>
     <use xlink:href="#DejaVuSans-2d" x="240.380859"/>
     <use xlink:href="#DejaVuSans-72" x="276.464844"/>
     <use xlink:href="#DejaVuSans-74" x="317.578125"/>
     <use xlink:href="#DejaVuSans-72" x="356.787109"/>
     <use xlink:href="#DejaVuSans-2d" x="391.525391"/>
     <use xlink:href="#DejaVuSans-31" x="427.609375"/>
    </g>
   </g>
   <g id="text_26">
    <g id="patch_39">
     <path d="M 1056.775 427.35125 
L 1119.875 427.35125 
L 1119.875 418.64875 
L 1056.775 418.64875 
z
" style="fill: #4b77be"/>
    </g>
    <!-- usa1-access-02 -->
    <g style="fill: #ffffff" transform="translate(1057.255 425.2075) scale(0.08 -0.08)">
     <use xlink:href="#DejaVuSans-75"/>
     <use xlink:href="#DejaVuSans-73" x="63.378906"/>
     <use xlink:href="#DejaVuSans-61" x="115.478516"/>
     <use xlink:href="#DejaVuSans-31" x="176.757812"/>
     <use xlink:href="#DejaVuSans-2d" x="240.380859"/>
     <use xlink:href="#DejaVuSans-61" x="276.464844"/>
     <use xlink:href="#DejaVuSans-63" x="337.744141"/>
     <use xlink:href="#DejaVuSans-63" x="392.724609"/>
     <use xlink:href="#DejaVuSans-65" x="447.705078"/>
     <use xlink:href="#DejaVuSans-73" x="509.228516"/>
     <use xlink:href="#DejaVuSans-73" x="561.328125"/>
     <use xlink:href="#DejaVuSans-2d" x="613.427734"/>
     <use xlink:href="#DejaVuSans-30" x="649.511719"/>
     <use xlink:href="#DejaVuSans-32" x="713.134766"/>
    </g>
   </g>
   <g id="text_27">
    <g id="patch_40">
     <path d="M 15.34125 427.35125 
L 68.80875 427.35125 
L 68.80875 418.64875 
L 15.34125 418.64875 
z
" style="fill: #4b77be"/>
    </g>
    <!-- usa1-core-02 -->
    <g style="fill: #ffffff" transform="translate(15.82125 425.2075) scale(0.08 -0.08)">
     <use xlink:href="#DejaVuSans-75"/>
     <use xlink:href="#DejaVuSans-73" x="63.378906"/>
     <use xlink:href="#DejaVuSans-61" x="115.478516"/>
     <use xlink:href="#DejaVuSans-31" x="176.757812"/>
     <use xlink:href="#DejaVuSans-2d" x="240.380859"/>
     <use xlink:href="#DejaVuSans-63" x="276.464844"/>
     <use xlink:href="#DejaVuSans-6f" x="331.445312"/>
     <use xlink:href="#DejaVuSans-72" x="392.626953"/>
     <use xlink:href="#DejaVuSans-65" x="431.490234"/>
     <use xlink:href="#DejaVuSans-2d" x="493.013672"/>
     <use xlink:href="#DejaVuSans-30" x="529.097656"/>
     <use xlink:href="#DejaVuSans-32" x="592.720703"/>
    </g>
   </g>
  </g>
 </g>
 <defs>
  <clipPath id="p15797348c3">
   <rect x="7.2" y="7.2" width="1116" height="831.6"/>
  </clipPath>
 </defs>
</svg>
