<?xml version="1.0" encoding="utf-8" standalone="no"?>
<!DOCTYPE svg PUBLIC "-//W3C//DTD SVG 1.1//EN"
  "http://www.w3.org/Graphics/SVG/1.1/DTD/svg11.dtd">
<svg xmlns:xlink="http://www.w3.org/1999/xlink" width="1130.4pt" height="846pt" viewBox="0 0 1130.4 846" xmlns="http://www.w3.org/2000/svg" version="1.1">
 <metadata>
  <rdf:RDF xmlns:dc="http://purl.org/dc/elements/1.1/" xmlns:cc="http://creativecommons.org/ns#" xmlns:rdf="http://www.w3.org/1999/02/22-rdf-syntax-ns#">
   <cc:Work>
    <dc:type rdf:resource="http://purl.org/dc/dcmitype/StillImage"/>
    <dc:date>2025-01-22T05:19:08.283736</dc:date>
    <dc:format>image/svg+xml</dc:format>
    <dc:creator>
     <cc:Agent>
      <dc:title>Matplotlib v3.9.4, https://matplotlib.org/</dc:title>
     </cc:Agent>
    </dc:creator>
   </cc:Work>
  </rdf:RDF>
 </metadata>
 <defs>
  <style type="text/css">*{stroke-linejoin: round; stroke-linecap: butt}</style>
 </defs>
 <g id="figure_1">
  <g id="patch_1">
   <path d="M 0 846 
L 1130.4 846 
L 1130.4 0 
L 0 0 
z
" style="fill: #1c1c1c"/>
  </g>
  <g id="axes_1">
   <g id="text_1">
    <g id="patch_2">
     <path d="M 642.932563 252.557312 
L 681.215376 252.557312 
L 681.215376 246.390437 
L 642.932563 246.390437 
z
" style="fill: #1c1c1c; opacity: 0.7"/>
    </g>
    <!-- Gi0/1 - Gi0/1 -->
    <g style="fill: #ffffff" transform="translate(643.112563 251.1295) scale(0.06 -0.06)">
     <defs>
      <path id="DejaVuSans-47" d="M 3809 666 
L 3809 1919 
L 2778 1919 
L 2778 2438 
L 4434 2438 
L 4434 434 
Q 4069 175 3628 42 
Q 3188 -91 2688 -91 
Q 1594 -91 976 548 
Q 359 1188 359 2328 
Q 359 3472 976 4111 
Q 1594 4750 2688 4750 
Q 3144 4750 3555 4637 
Q 3966 4525 4313 4306 
L 4313 3634 
Q 3963 3931 3569 4081 
Q 3175 4231 2741 4231 
Q 1884 4231 1454 3753 
Q 1025 3275 1025 2328 
Q 1025 1384 1454 906 
Q 1884 428 2741 428 
Q 3075 428 3337 486 
Q 3600 544 3809 666 
z
" transform="scale(0.015625)"/>
      <path id="DejaVuSans-69" d="M 603 3500 
L 1178 3500 
L 1178 0 
L 603 0 
L 603 3500 
z
M 603 4863 
L 1178 4863 
L 1178 4134 
L 603 4134 
L 603 4863 
z
" transform="scale(0.015625)"/>
      <path id="DejaVuSans-30" d="M 2034 4250 
Q 1547 4250 1301 3770 
Q 1056 3291 1056 2328 
Q 1056 1369 1301 889 
Q 1547 409 2034 409 
Q 2525 409 2770 889 
Q 3016 1369 3016 2328 
Q 3016 3291 2770 3770 
Q 2525 4250 2034 4250 
z
M 2034 4750 
Q 2819 4750 3233 4129 
Q 3647 3509 3647 2328 
Q 3647 1150 3233 529 
Q 2819 -91 2034 -91 
Q 1250 -91 836 529 
Q 422 1150 422 2328 
Q 422 3509 836 4129 
Q 1250 4750 2034 4750 
z
" transform="scale(0.015625)"/>
      <path id="DejaVuSans-2f" d="M 1625 4666 
L 2156 4666 
L 531 -594 
L 0 -594 
L 1625 4666 
z
" transform="scale(0.015625)"/>
      <path id="DejaVuSans-31" d="M 794 531 
L 1825 531 
L 1825 4091 
L 703 3866 
L 703 4441 
L 1819 4666 
L 2450 4666 
L 2450 531 
L 3481 531 
L 3481 0 
L 794 0 
L 794 531 
z
" transform="scale(0.015625)"/>
      <path id="DejaVuSans-20" transform="scale(0.015625)"/>
      <path id="DejaVuSans-2d" d="M 313 2009 
L 1997 2009 
L 1997 1497 
L 313 1497 
L 313 2009 
z
" transform="scale(0.015625)"/>
     </defs>
     <use xlink:href="#DejaVuSans-47"/>
     <use xlink:href="#DejaVuSans-69" x="77.490234"/>
     <use xlink:href="#DejaVuSans-30" x="105.273438"/>
     <use xlink:href="#DejaVuSans-2f" x="168.896484"/>
     <use xlink:href="#DejaVuSans-31" x="202.587891"/>
     <use xlink:href="#DejaVuSans-20" x="266.210938"/>
     <use xlink:href="#DejaVuSans-2d" x="297.998047"/>
     <use xlink:href="#DejaVuSans-20" x="334.082031"/>
     <use xlink:href="#DejaVuSans-47" x="365.869141"/>
     <use xlink:href="#DejaVuSans-69" x="443.359375"/>
     <use xlink:href="#DejaVuSans-30" x="471.142578"/>
     <use xlink:href="#DejaVuSans-2f" x="534.765625"/>
     <use xlink:href="#DejaVuSans-31" x="568.457031"/>
    </g>
   </g>
   <g id="text_2">
    <g id="patch_3">
     <path d="M 752.966676 322.947986 
L 791.249489 322.947986 
L 791.249489 316.781111 
L 752.966676 316.781111 
z
" style="fill: #1c1c1c; opacity: 0.7"/>
    </g>
    <!-- Gi0/3 - Gi0/2 -->
    <g style="fill: #ffffff" transform="translate(753.146676 321.520174) scale(0.06 -0.06)">
     <defs>
      <path id="DejaVuSans-33" d="M 2597 2516 
Q 3050 2419 3304 2112 
Q 3559 1806 3559 1356 
Q 3559 666 3084 287 
Q 2609 -91 1734 -91 
Q 1441 -91 1130 -33 
Q 819 25 488 141 
L 488 750 
Q 750 597 1062 519 
Q 1375 441 1716 441 
Q 2309 441 2620 675 
Q 2931 909 2931 1356 
Q 2931 1769 2642 2001 
Q 2353 2234 1838 2234 
L 1294 2234 
L 1294 2753 
L 1863 2753 
Q 2328 2753 2575 2939 
Q 2822 3125 2822 3475 
Q 2822 3834 2567 4026 
Q 2313 4219 1838 4219 
Q 1578 4219 1281 4162 
Q 984 4106 628 3988 
L 628 4550 
Q 988 4650 1302 4700 
Q 1616 4750 1894 4750 
Q 2613 4750 3031 4423 
Q 3450 4097 3450 3541 
Q 3450 3153 3228 2886 
Q 3006 2619 2597 2516 
z
" transform="scale(0.015625)"/>
      <path id="DejaVuSans-32" d="M 1228 531 
L 3431 531 
L 3431 0 
L 469 0 
L 469 531 
Q 828 903 1448 1529 
Q 2069 2156 2228 2338 
Q 2531 2678 2651 2914 
Q 2772 3150 2772 3378 
Q 2772 3750 2511 3984 
Q 2250 4219 1831 4219 
Q 1534 4219 1204 4116 
Q 875 4013 500 3803 
L 500 4441 
Q 881 4594 1212 4672 
Q 1544 4750 1819 4750 
Q 2544 4750 2975 4387 
Q 3406 4025 3406 3419 
Q 3406 3131 3298 2873 
Q 3191 2616 2906 2266 
Q 2828 2175 2409 1742 
Q 1991 1309 1228 531 
z
" transform="scale(0.015625)"/>
     </defs>
     <use xlink:href="#DejaVuSans-47"/>
     <use xlink:href="#DejaVuSans-69" x="77.490234"/>
     <use xlink:href="#DejaVuSans-30" x="105.273438"/>
     <use xlink:href="#DejaVuSans-2f" x="168.896484"/>
     <use xlink:href="#DejaVuSans-33" x="202.587891"/>
     <use xlink:href="#DejaVuSans-20" x="266.210938"/>
     <use xlink:href="#DejaVuSans-2d" x="297.998047"/>
     <use xlink:href="#DejaVuSans-20" x="334.082031"/>
     <use xlink:href="#DejaVuSans-47" x="365.869141"/>
     <use xlink:href="#DejaVuSans-69" x="443.359375"/>
     <use xlink:href="#DejaVuSans-30" x="471.142578"/>
     <use xlink:href="#DejaVuSans-2f" x="534.765625"/>
     <use xlink:href="#DejaVuSans-32" x="568.457031"/>
    </g>
   </g>
   <g id="text_3">
    <g id="patch_4">
     <path d="M 285.849606 372.338671 
L 327.762419 372.338671 
L 327.762419 366.171796 
L 285.849606 366.171796 
z
" style="fill: #1c1c1c; opacity: 0.7"/>
    </g>
    <!-- Gi0/0 - Eth2/0 -->
    <g style="fill: #ffffff" transform="translate(286.029606 370.910859) scale(0.06 -0.06)">
     <defs>
      <path id="DejaVuSans-45" d="M 628 4666 
L 3578 4666 
L 3578 4134 
L 1259 4134 
L 1259 2753 
L 3481 2753 
L 3481 2222 
L 1259 2222 
L 1259 531 
L 3634 531 
L 3634 0 
L 628 0 
L 628 4666 
z
" transform="scale(0.015625)"/>
      <path id="DejaVuSans-74" d="M 1172 4494 
L 1172 3500 
L 2356 3500 
L 2356 3053 
L 1172 3053 
L 1172 1153 
Q 1172 725 1289 603 
Q 1406 481 1766 481 
L 2356 481 
L 2356 0 
L 1766 0 
Q 1100 0 847 248 
Q 594 497 594 1153 
L 594 3053 
L 172 3053 
L 172 3500 
L 594 3500 
L 594 4494 
L 1172 4494 
z
" transform="scale(0.015625)"/>
      <path id="DejaVuSans-68" d="M 3513 2113 
L 3513 0 
L 2938 0 
L 2938 2094 
Q 2938 2591 2744 2837 
Q 2550 3084 2163 3084 
Q 1697 3084 1428 2787 
Q 1159 2491 1159 1978 
L 1159 0 
L 581 0 
L 581 4863 
L 1159 4863 
L 1159 2956 
Q 1366 3272 1645 3428 
Q 1925 3584 2291 3584 
Q 2894 3584 3203 3211 
Q 3513 2838 3513 2113 
z
" transform="scale(0.015625)"/>
     </defs>
     <use xlink:href="#DejaVuSans-47"/>
     <use xlink:href="#DejaVuSans-69" x="77.490234"/>
     <use xlink:href="#DejaVuSans-30" x="105.273438"/>
     <use xlink:href="#DejaVuSans-2f" x="168.896484"/>
     <use xlink:href="#DejaVuSans-30" x="202.587891"/>
     <use xlink:href="#DejaVuSans-20" x="266.210938"/>
     <use xlink:href="#DejaVuSans-2d" x="297.998047"/>
     <use xlink:href="#DejaVuSans-20" x="334.082031"/>
     <use xlink:href="#DejaVuSans-45" x="365.869141"/>
     <use xlink:href="#DejaVuSans-74" x="429.052734"/>
     <use xlink:href="#DejaVuSans-68" x="468.261719"/>
     <use xlink:href="#DejaVuSans-32" x="531.640625"/>
     <use xlink:href="#DejaVuSans-2f" x="595.263672"/>
     <use xlink:href="#DejaVuSans-30" x="628.955078"/>
    </g>
   </g>
   <g id="text_4">
    <g id="patch_5">
     <path d="M 367.484121 570.254153 
L 403.558183 570.254153 
L 403.558183 564.087278 
L 367.484121 564.087278 
z
" style="fill: #1c1c1c; opacity: 0.7"/>
    </g>
    <!-- Gi0/2 - Eth1 -->
    <g style="fill: #ffffff" transform="translate(367.664121 568.82634) scale(0.06 -0.06)">
     <use xlink:href="#DejaVuSans-47"/>
     <use xlink:href="#DejaVuSans-69" x="77.490234"/>
     <use xlink:href="#DejaVuSans-30" x="105.273438"/>
     <use xlink:href="#DejaVuSans-2f" x="168.896484"/>
     <use xlink:href="#DejaVuSans-32" x="202.587891"/>
     <use xlink:href="#DejaVuSans-20" x="266.210938"/>
     <use xlink:href="#DejaVuSans-2d" x="297.998047"/>
     <use xlink:href="#DejaVuSans-20" x="334.082031"/>
     <use xlink:href="#DejaVuSans-45" x="365.869141"/>
     <use xlink:href="#DejaVuSans-74" x="429.052734"/>
     <use xlink:href="#DejaVuSans-68" x="468.261719"/>
     <use xlink:href="#DejaVuSans-31" x="531.640625"/>
    </g>
   </g>
   <g id="text_5">
    <g id="patch_6">
     <path d="M 860.307418 149.421861 
L 898.59023 149.421861 
L 898.59023 143.254986 
L 860.307418 143.254986 
z
" style="fill: #1c1c1c; opacity: 0.7"/>
    </g>
    <!-- Gi0/2 - Gi0/0 -->
    <g style="fill: #ffffff" transform="translate(860.487418 147.994049) scale(0.06 -0.06)">
     <use xlink:href="#DejaVuSans-47"/>
     <use xlink:href="#DejaVuSans-69" x="77.490234"/>
     <use xlink:href="#DejaVuSans-30" x="105.273438"/>
     <use xlink:href="#DejaVuSans-2f" x="168.896484"/>
     <use xlink:href="#DejaVuSans-32" x="202.587891"/>
     <use xlink:href="#DejaVuSans-20" x="266.210938"/>
     <use xlink:href="#DejaVuSans-2d" x="297.998047"/>
     <use xlink:href="#DejaVuSans-20" x="334.082031"/>
     <use xlink:href="#DejaVuSans-47" x="365.869141"/>
     <use xlink:href="#DejaVuSans-69" x="443.359375"/>
     <use xlink:href="#DejaVuSans-30" x="471.142578"/>
     <use xlink:href="#DejaVuSans-2f" x="534.765625"/>
     <use xlink:href="#DejaVuSans-30" x="568.457031"/>
    </g>
   </g>
   <g id="text_6">
    <g id="patch_7">
     <path d="M 393.190348 198.812546 
L 435.103161 198.812546 
L 435.103161 192.645671 
L 393.190348 192.645671 
z
" style="fill: #1c1c1c; opacity: 0.7"/>
    </g>
    <!-- Gi0/0 - Eth1/2 -->
    <g style="fill: #ffffff" transform="translate(393.370348 197.384734) scale(0.06 -0.06)">
     <use xlink:href="#DejaVuSans-47"/>
     <use xlink:href="#DejaVuSans-69" x="77.490234"/>
     <use xlink:href="#DejaVuSans-30" x="105.273438"/>
     <use xlink:href="#DejaVuSans-2f" x="168.896484"/>
     <use xlink:href="#DejaVuSans-30" x="202.587891"/>
     <use xlink:href="#DejaVuSans-20" x="266.210938"/>
     <use xlink:href="#DejaVuSans-2d" x="297.998047"/>
     <use xlink:href="#DejaVuSans-20" x="334.082031"/>
     <use xlink:href="#DejaVuSans-45" x="365.869141"/>
     <use xlink:href="#DejaVuSans-74" x="429.052734"/>
     <use xlink:href="#DejaVuSans-68" x="468.261719"/>
     <use xlink:href="#DejaVuSans-31" x="531.640625"/>
     <use xlink:href="#DejaVuSans-2f" x="595.263672"/>
     <use xlink:href="#DejaVuSans-32" x="628.955078"/>
    </g>
   </g>
   <g id="text_7">
    <g id="patch_8">
     <path d="M 542.428594 372.338671 
L 587.971406 372.338671 
L 587.971406 366.171796 
L 542.428594 366.171796 
z
" style="fill: #1c1c1c; opacity: 0.7"/>
    </g>
    <!-- Eth1/0 - Eth1/0 -->
    <g style="fill: #ffffff" transform="translate(542.608594 370.910859) scale(0.06 -0.06)">
     <use xlink:href="#DejaVuSans-45"/>
     <use xlink:href="#DejaVuSans-74" x="63.183594"/>
     <use xlink:href="#DejaVuSans-68" x="102.392578"/>
     <use xlink:href="#DejaVuSans-31" x="165.771484"/>
     <use xlink:href="#DejaVuSans-2f" x="229.394531"/>
     <use xlink:href="#DejaVuSans-30" x="263.085938"/>
     <use xlink:href="#DejaVuSans-20" x="326.708984"/>
     <use xlink:href="#DejaVuSans-2d" x="358.496094"/>
     <use xlink:href="#DejaVuSans-20" x="394.580078"/>
     <use xlink:href="#DejaVuSans-45" x="426.367188"/>
     <use xlink:href="#DejaVuSans-74" x="489.550781"/>
     <use xlink:href="#DejaVuSans-68" x="528.759766"/>
     <use xlink:href="#DejaVuSans-31" x="592.138672"/>
     <use xlink:href="#DejaVuSans-2f" x="655.761719"/>
     <use xlink:href="#DejaVuSans-30" x="689.453125"/>
    </g>
   </g>
   <g id="text_8">
    <g id="patch_9">
     <path d="M 120.66128 623.998919 
L 154.526593 623.998919 
L 154.526593 617.832044 
L 120.66128 617.832044 
z
" style="fill: #1c1c1c; opacity: 0.7"/>
    </g>
    <!-- Eth2 - Eth1 -->
    <g style="fill: #ffffff" transform="translate(120.84128 622.571106) scale(0.06 -0.06)">
     <use xlink:href="#DejaVuSans-45"/>
     <use xlink:href="#DejaVuSans-74" x="63.183594"/>
     <use xlink:href="#DejaVuSans-68" x="102.392578"/>
     <use xlink:href="#DejaVuSans-32" x="165.771484"/>
     <use xlink:href="#DejaVuSans-20" x="229.394531"/>
     <use xlink:href="#DejaVuSans-2d" x="261.181641"/>
     <use xlink:href="#DejaVuSans-20" x="297.265625"/>
     <use xlink:href="#DejaVuSans-45" x="329.052734"/>
     <use xlink:href="#DejaVuSans-74" x="392.236328"/>
     <use xlink:href="#DejaVuSans-68" x="431.445312"/>
     <use xlink:href="#DejaVuSans-31" x="494.824219"/>
    </g>
   </g>
   <g id="text_9">
    <g id="patch_10">
     <path d="M 331.815197 759.077633 
L 365.68051 759.077633 
L 365.68051 752.910758 
L 331.815197 752.910758 
z
" style="fill: #1c1c1c; opacity: 0.7"/>
    </g>
    <!-- Eth3 - Eth1 -->
    <g style="fill: #ffffff" transform="translate(331.995197 757.64982) scale(0.06 -0.06)">
     <use xlink:href="#DejaVuSans-45"/>
     <use xlink:href="#DejaVuSans-74" x="63.183594"/>
     <use xlink:href="#DejaVuSans-68" x="102.392578"/>
     <use xlink:href="#DejaVuSans-33" x="165.771484"/>
     <use xlink:href="#DejaVuSans-20" x="229.394531"/>
     <use xlink:href="#DejaVuSans-2d" x="261.181641"/>
     <use xlink:href="#DejaVuSans-20" x="297.265625"/>
     <use xlink:href="#DejaVuSans-45" x="329.052734"/>
     <use xlink:href="#DejaVuSans-74" x="392.236328"/>
     <use xlink:href="#DejaVuSans-68" x="431.445312"/>
     <use xlink:href="#DejaVuSans-31" x="494.824219"/>
    </g>
   </g>
   <g id="text_10">
    <g id="patch_11">
     <path d="M 622.958733 281.912722 
L 664.871545 281.912722 
L 664.871545 275.745847 
L 622.958733 275.745847 
z
" style="fill: #1c1c1c; opacity: 0.7"/>
    </g>
    <!-- Eth1/2 - Gi0/0 -->
    <g style="fill: #ffffff" transform="translate(623.138733 280.48491) scale(0.06 -0.06)">
     <use xlink:href="#DejaVuSans-45"/>
     <use xlink:href="#DejaVuSans-74" x="63.183594"/>
     <use xlink:href="#DejaVuSans-68" x="102.392578"/>
     <use xlink:href="#DejaVuSans-31" x="165.771484"/>
     <use xlink:href="#DejaVuSans-2f" x="229.394531"/>
     <use xlink:href="#DejaVuSans-32" x="263.085938"/>
     <use xlink:href="#DejaVuSans-20" x="326.708984"/>
     <use xlink:href="#DejaVuSans-2d" x="358.496094"/>
     <use xlink:href="#DejaVuSans-20" x="394.580078"/>
     <use xlink:href="#DejaVuSans-47" x="426.367188"/>
     <use xlink:href="#DejaVuSans-69" x="503.857422"/>
     <use xlink:href="#DejaVuSans-30" x="531.640625"/>
     <use xlink:href="#DejaVuSans-2f" x="595.263672"/>
     <use xlink:href="#DejaVuSans-30" x="628.955078"/>
    </g>
   </g>
   <g id="text_11">
    <g id="patch_12">
     <path d="M 253.100058 668.651684 
L 286.96537 668.651684 
L 286.96537 662.484809 
L 253.100058 662.484809 
z
" style="fill: #1c1c1c; opacity: 0.7"/>
    </g>
    <!-- Eth3 - Eth3 -->
    <g style="fill: #ffffff" transform="translate(253.280058 667.223872) scale(0.06 -0.06)">
     <use xlink:href="#DejaVuSans-45"/>
     <use xlink:href="#DejaVuSans-74" x="63.183594"/>
     <use xlink:href="#DejaVuSans-68" x="102.392578"/>
     <use xlink:href="#DejaVuSans-33" x="165.771484"/>
     <use xlink:href="#DejaVuSans-20" x="229.394531"/>
     <use xlink:href="#DejaVuSans-2d" x="261.181641"/>
     <use xlink:href="#DejaVuSans-20" x="297.265625"/>
     <use xlink:href="#DejaVuSans-45" x="329.052734"/>
     <use xlink:href="#DejaVuSans-74" x="392.236328"/>
     <use xlink:href="#DejaVuSans-68" x="431.445312"/>
     <use xlink:href="#DejaVuSans-33" x="494.824219"/>
    </g>
   </g>
   <g id="text_12">
    <g id="patch_13">
     <path d="M 329.606447 93.089242 
L 367.88926 93.089242 
L 367.88926 86.922367 
L 329.606447 86.922367 
z
" style="fill: #1c1c1c; opacity: 0.7"/>
    </g>
    <!-- Gi0/1 - Gi0/0 -->
    <g style="fill: #ffffff" transform="translate(329.786447 91.66143) scale(0.06 -0.06)">
     <use xlink:href="#DejaVuSans-47"/>
     <use xlink:href="#DejaVuSans-69" x="77.490234"/>
     <use xlink:href="#DejaVuSans-30" x="105.273438"/>
     <use xlink:href="#DejaVuSans-2f" x="168.896484"/>
     <use xlink:href="#DejaVuSans-31" x="202.587891"/>
     <use xlink:href="#DejaVuSans-20" x="266.210938"/>
     <use xlink:href="#DejaVuSans-2d" x="297.998047"/>
     <use xlink:href="#DejaVuSans-20" x="334.082031"/>
     <use xlink:href="#DejaVuSans-47" x="365.869141"/>
     <use xlink:href="#DejaVuSans-69" x="443.359375"/>
     <use xlink:href="#DejaVuSans-30" x="471.142578"/>
     <use xlink:href="#DejaVuSans-2f" x="534.765625"/>
     <use xlink:href="#DejaVuSans-30" x="568.457031"/>
    </g>
   </g>
   <g id="text_13">
    <g id="patch_14">
     <path d="M 583.7546 385.048174 
L 622.037413 385.048174 
L 622.037413 378.881299 
L 583.7546 378.881299 
z
" style="fill: #1c1c1c; opacity: 0.7"/>
    </g>
    <!-- Gi0/3 - Gi0/0 -->
    <g style="fill: #ffffff" transform="translate(583.9346 383.620361) scale(0.06 -0.06)">
     <use xlink:href="#DejaVuSans-47"/>
     <use xlink:href="#DejaVuSans-69" x="77.490234"/>
     <use xlink:href="#DejaVuSans-30" x="105.273438"/>
     <use xlink:href="#DejaVuSans-2f" x="168.896484"/>
     <use xlink:href="#DejaVuSans-33" x="202.587891"/>
     <use xlink:href="#DejaVuSans-20" x="266.210938"/>
     <use xlink:href="#DejaVuSans-2d" x="297.998047"/>
     <use xlink:href="#DejaVuSans-20" x="334.082031"/>
     <use xlink:href="#DejaVuSans-47" x="365.869141"/>
     <use xlink:href="#DejaVuSans-69" x="443.359375"/>
     <use xlink:href="#DejaVuSans-30" x="471.142578"/>
     <use xlink:href="#DejaVuSans-2f" x="534.765625"/>
     <use xlink:href="#DejaVuSans-30" x="568.457031"/>
    </g>
   </g>
   <g id="text_14">
    <g id="patch_15">
     <path d="M 473.720487 455.438848 
L 512.0033 455.438848 
L 512.0033 449.271973 
L 473.720487 449.271973 
z
" style="fill: #1c1c1c; opacity: 0.7"/>
    </g>
    <!-- Gi0/2 - Gi0/0 -->
    <g style="fill: #ffffff" transform="translate(473.900487 454.011035) scale(0.06 -0.06)">
     <use xlink:href="#DejaVuSans-47"/>
     <use xlink:href="#DejaVuSans-69" x="77.490234"/>
     <use xlink:href="#DejaVuSans-30" x="105.273438"/>
     <use xlink:href="#DejaVuSans-2f" x="168.896484"/>
     <use xlink:href="#DejaVuSans-32" x="202.587891"/>
     <use xlink:href="#DejaVuSans-20" x="266.210938"/>
     <use xlink:href="#DejaVuSans-2d" x="297.998047"/>
     <use xlink:href="#DejaVuSans-20" x="334.082031"/>
     <use xlink:href="#DejaVuSans-47" x="365.869141"/>
     <use xlink:href="#DejaVuSans-69" x="443.359375"/>
     <use xlink:href="#DejaVuSans-30" x="471.142578"/>
     <use xlink:href="#DejaVuSans-2f" x="534.765625"/>
     <use xlink:href="#DejaVuSans-30" x="568.457031"/>
    </g>
   </g>
   <g id="text_15">
    <g id="patch_16">
     <path d="M 716.193378 340.395408 
L 754.47619 340.395408 
L 754.47619 334.228533 
L 716.193378 334.228533 
z
" style="fill: #1c1c1c; opacity: 0.7"/>
    </g>
    <!-- Gi0/2 - Gi0/1 -->
    <g style="fill: #ffffff" transform="translate(716.373378 338.967596) scale(0.06 -0.06)">
     <use xlink:href="#DejaVuSans-47"/>
     <use xlink:href="#DejaVuSans-69" x="77.490234"/>
     <use xlink:href="#DejaVuSans-30" x="105.273438"/>
     <use xlink:href="#DejaVuSans-2f" x="168.896484"/>
     <use xlink:href="#DejaVuSans-32" x="202.587891"/>
     <use xlink:href="#DejaVuSans-20" x="266.210938"/>
     <use xlink:href="#DejaVuSans-2d" x="297.998047"/>
     <use xlink:href="#DejaVuSans-20" x="334.082031"/>
     <use xlink:href="#DejaVuSans-47" x="365.869141"/>
     <use xlink:href="#DejaVuSans-69" x="443.359375"/>
     <use xlink:href="#DejaVuSans-30" x="471.142578"/>
     <use xlink:href="#DejaVuSans-2f" x="534.765625"/>
     <use xlink:href="#DejaVuSans-31" x="568.457031"/>
    </g>
   </g>
   <g id="text_16">
    <g id="patch_17">
     <path d="M 606.159265 410.786082 
L 644.442077 410.786082 
L 644.442077 404.619207 
L 606.159265 404.619207 
z
" style="fill: #1c1c1c; opacity: 0.7"/>
    </g>
    <!-- Gi0/1 - Gi0/1 -->
    <g style="fill: #ffffff" transform="translate(606.339265 409.35827) scale(0.06 -0.06)">
     <use xlink:href="#DejaVuSans-47"/>
     <use xlink:href="#DejaVuSans-69" x="77.490234"/>
     <use xlink:href="#DejaVuSans-30" x="105.273438"/>
     <use xlink:href="#DejaVuSans-2f" x="168.896484"/>
     <use xlink:href="#DejaVuSans-31" x="202.587891"/>
     <use xlink:href="#DejaVuSans-20" x="266.210938"/>
     <use xlink:href="#DejaVuSans-2d" x="297.998047"/>
     <use xlink:href="#DejaVuSans-20" x="334.082031"/>
     <use xlink:href="#DejaVuSans-47" x="365.869141"/>
     <use xlink:href="#DejaVuSans-69" x="443.359375"/>
     <use xlink:href="#DejaVuSans-30" x="471.142578"/>
     <use xlink:href="#DejaVuSans-2f" x="534.765625"/>
     <use xlink:href="#DejaVuSans-31" x="568.457031"/>
    </g>
   </g>
   <g id="text_17">
    <g id="patch_18">
     <path d="M 860.307418 702.745014 
L 898.59023 702.745014 
L 898.59023 696.578139 
L 860.307418 696.578139 
z
" style="fill: #1c1c1c; opacity: 0.7"/>
    </g>
    <!-- Gi0/2 - Gi0/2 -->
    <g style="fill: #ffffff" transform="translate(860.487418 701.317201) scale(0.06 -0.06)">
     <use xlink:href="#DejaVuSans-47"/>
     <use xlink:href="#DejaVuSans-69" x="77.490234"/>
     <use xlink:href="#DejaVuSans-30" x="105.273438"/>
     <use xlink:href="#DejaVuSans-2f" x="168.896484"/>
     <use xlink:href="#DejaVuSans-32" x="202.587891"/>
     <use xlink:href="#DejaVuSans-20" x="266.210938"/>
     <use xlink:href="#DejaVuSans-2d" x="297.998047"/>
     <use xlink:href="#DejaVuSans-20" x="334.082031"/>
     <use xlink:href="#DejaVuSans-47" x="365.869141"/>
     <use xlink:href="#DejaVuSans-69" x="443.359375"/>
     <use xlink:href="#DejaVuSans-30" x="471.142578"/>
     <use xlink:href="#DejaVuSans-2f" x="534.765625"/>
     <use xlink:href="#DejaVuSans-32" x="568.457031"/>
    </g>
   </g>
   <g id="line2d_1">
    <path d="M 554.733228 423 
L 769.414711 75.94775 
" clip-path="url(#pf90a23f5ed)" style="fill: none; stroke: #ffffff; stroke-opacity: 0.6; stroke-linecap: square"/>
   </g>
   <g id="line2d_2">
    <path d="M 554.733228 423 
L 989.482937 216.729098 
" clip-path="url(#pf90a23f5ed)" style="fill: none; stroke: #ffffff; stroke-opacity: 0.6; stroke-linecap: square"/>
   </g>
   <g id="line2d_3">
    <path d="M 554.733228 423 
L 58.878797 315.510468 
" clip-path="url(#pf90a23f5ed)" style="fill: none; stroke: #ffffff; stroke-opacity: 0.6; stroke-linecap: square"/>
   </g>
   <g id="line2d_4">
    <path d="M 554.733228 423 
L 216.309076 711.34143 
" clip-path="url(#pf90a23f5ed)" style="fill: none; stroke: #ffffff; stroke-opacity: 0.6; stroke-linecap: square"/>
   </g>
   <g id="line2d_5">
    <path d="M 769.414711 75.94775 
L 989.482937 216.729098 
" clip-path="url(#pf90a23f5ed)" style="fill: none; stroke: #ffffff; stroke-opacity: 0.6; stroke-linecap: square"/>
   </g>
   <g id="line2d_6">
    <path d="M 769.414711 75.94775 
L 58.878797 315.510468 
" clip-path="url(#pf90a23f5ed)" style="fill: none; stroke: #ffffff; stroke-opacity: 0.6; stroke-linecap: square"/>
   </g>
   <g id="line2d_7">
    <path d="M 58.878797 315.510468 
L 1071.521203 423 
" clip-path="url(#pf90a23f5ed)" style="fill: none; stroke: #ffffff; stroke-opacity: 0.6; stroke-linecap: square"/>
   </g>
   <g id="line2d_8">
    <path d="M 216.309076 711.34143 
L 58.878797 530.489532 
" clip-path="url(#pf90a23f5ed)" style="fill: none; stroke: #ffffff; stroke-opacity: 0.6; stroke-linecap: square"/>
   </g>
   <g id="line2d_9">
    <path d="M 216.309076 711.34143 
L 481.186631 800.646961 
" clip-path="url(#pf90a23f5ed)" style="fill: none; stroke: #ffffff; stroke-opacity: 0.6; stroke-linecap: square"/>
   </g>
   <g id="line2d_10">
    <path d="M 1071.521203 423 
L 216.309076 134.65857 
" clip-path="url(#pf90a23f5ed)" style="fill: none; stroke: #ffffff; stroke-opacity: 0.6; stroke-linecap: square"/>
   </g>
   <g id="line2d_11">
    <path d="M 58.878797 530.489532 
L 481.186631 800.646961 
" clip-path="url(#pf90a23f5ed)" style="fill: none; stroke: #ffffff; stroke-opacity: 0.6; stroke-linecap: square"/>
   </g>
   <g id="line2d_12">
    <path d="M 216.309076 134.65857 
L 481.186631 45.353039 
" clip-path="url(#pf90a23f5ed)" style="fill: none; stroke: #ffffff; stroke-opacity: 0.6; stroke-linecap: square"/>
   </g>
   <g id="line2d_13">
    <path d="M 216.309076 134.65857 
L 989.482937 629.270902 
" clip-path="url(#pf90a23f5ed)" style="fill: none; stroke: #ffffff; stroke-opacity: 0.6; stroke-linecap: square"/>
   </g>
   <g id="line2d_14">
    <path d="M 216.309076 134.65857 
L 769.414711 770.05225 
" clip-path="url(#pf90a23f5ed)" style="fill: none; stroke: #ffffff; stroke-opacity: 0.6; stroke-linecap: square"/>
   </g>
   <g id="line2d_15">
    <path d="M 481.186631 45.353039 
L 989.482937 629.270902 
" clip-path="url(#pf90a23f5ed)" style="fill: none; stroke: #ffffff; stroke-opacity: 0.6; stroke-linecap: square"/>
   </g>
   <g id="line2d_16">
    <path d="M 481.186631 45.353039 
L 769.414711 770.05225 
" clip-path="url(#pf90a23f5ed)" style="fill: none; stroke: #ffffff; stroke-opacity: 0.6; stroke-linecap: square"/>
   </g>
   <g id="line2d_17">
    <path d="M 989.482937 629.270902 
L 769.414711 770.05225 
" clip-path="url(#pf90a23f5ed)" style="fill: none; stroke: #ffffff; stroke-opacity: 0.6; stroke-linecap: square"/>
   </g>
   <g id="patch_19">
    <path d="M 528.893829 428.722956 
L 580.572627 428.722956 
L 580.572627 417.277044 
L 528.893829 417.277044 
z
" clip-path="url(#pf90a23f5ed)" style="fill: #4b77be; stroke: #ffffff; stroke-linejoin: miter"/>
   </g>
   <g id="patch_20">
    <path d="M 1045.681804 428.722956 
L 1097.360601 428.722956 
L 1097.360601 417.277044 
L 1045.681804 417.277044 
z
" clip-path="url(#pf90a23f5ed)" style="fill: #4b77be; stroke: #ffffff; stroke-linejoin: miter"/>
   </g>
   <g id="patch_21">
    <path d="M 963.643539 222.452054 
L 1015.322336 222.452054 
L 1015.322336 211.006142 
L 963.643539 211.006142 
z
" clip-path="url(#pf90a23f5ed)" style="fill: #4b77be; stroke: #ffffff; stroke-linejoin: miter"/>
   </g>
   <g id="patch_22">
    <path d="M 743.575312 81.670706 
L 795.25411 81.670706 
L 795.25411 70.224794 
L 743.575312 70.224794 
z
" clip-path="url(#pf90a23f5ed)" style="fill: #4b77be; stroke: #ffffff; stroke-linejoin: miter"/>
   </g>
   <g id="patch_23">
    <path d="M 455.347232 51.075995 
L 507.02603 51.075995 
L 507.02603 39.630083 
L 455.347232 39.630083 
z
" clip-path="url(#pf90a23f5ed)" style="fill: #4b77be; stroke: #ffffff; stroke-linejoin: miter"/>
   </g>
   <g id="patch_24">
    <path d="M 190.469677 140.381526 
L 242.148474 140.381526 
L 242.148474 128.935614 
L 190.469677 128.935614 
z
" clip-path="url(#pf90a23f5ed)" style="fill: #4b77be; stroke: #ffffff; stroke-linejoin: miter"/>
   </g>
   <g id="patch_25">
    <path d="M 33.039399 321.233424 
L 84.718196 321.233424 
L 84.718196 309.787512 
L 33.039399 309.787512 
z
" clip-path="url(#pf90a23f5ed)" style="fill: #4b77be; stroke: #ffffff; stroke-linejoin: miter"/>
   </g>
   <g id="patch_26">
    <path d="M 33.039399 536.212488 
L 84.718196 536.212488 
L 84.718196 524.766576 
L 33.039399 524.766576 
z
" clip-path="url(#pf90a23f5ed)" style="fill: #4b77be; stroke: #ffffff; stroke-linejoin: miter"/>
   </g>
   <g id="patch_27">
    <path d="M 190.469677 717.064386 
L 242.148474 717.064386 
L 242.148474 705.618474 
L 190.469677 705.618474 
z
" clip-path="url(#pf90a23f5ed)" style="fill: #4b77be; stroke: #ffffff; stroke-linejoin: miter"/>
   </g>
   <g id="patch_28">
    <path d="M 455.347232 806.369917 
L 507.02603 806.369917 
L 507.02603 794.924005 
L 455.347232 794.924005 
z
" clip-path="url(#pf90a23f5ed)" style="fill: #4b77be; stroke: #ffffff; stroke-linejoin: miter"/>
   </g>
   <g id="patch_29">
    <path d="M 743.575312 775.775206 
L 795.25411 775.775206 
L 795.25411 764.329294 
L 743.575312 764.329294 
z
" clip-path="url(#pf90a23f5ed)" style="fill: #4b77be; stroke: #ffffff; stroke-linejoin: miter"/>
   </g>
   <g id="patch_30">
    <path d="M 963.643539 634.993858 
L 1015.322336 634.993858 
L 1015.322336 623.547946 
L 963.643539 623.547946 
z
" clip-path="url(#pf90a23f5ed)" style="fill: #4b77be; stroke: #ffffff; stroke-linejoin: miter"/>
   </g>
   <g id="text_18">
    <g id="patch_31">
     <path d="M 527.999478 427.35125 
L 581.466978 427.35125 
L 581.466978 418.64875 
L 527.999478 418.64875 
z
" style="fill: #4b77be"/>
    </g>
    <!-- usa1-core-01 -->
    <g style="fill: #ffffff" transform="translate(528.479478 425.2075) scale(0.08 -0.08)">
     <defs>
      <path id="DejaVuSans-75" d="M 544 1381 
L 544 3500 
L 1119 3500 
L 1119 1403 
Q 1119 906 1312 657 
Q 1506 409 1894 409 
Q 2359 409 2629 706 
Q 2900 1003 2900 1516 
L 2900 3500 
L 3475 3500 
L 3475 0 
L 2900 0 
L 2900 538 
Q 2691 219 2414 64 
Q 2138 -91 1772 -91 
Q 1169 -91 856 284 
Q 544 659 544 1381 
z
M 1991 3584 
L 1991 3584 
z
" transform="scale(0.015625)"/>
      <path id="DejaVuSans-73" d="M 2834 3397 
L 2834 2853 
Q 2591 2978 2328 3040 
Q 2066 3103 1784 3103 
Q 1356 3103 1142 2972 
Q 928 2841 928 2578 
Q 928 2378 1081 2264 
Q 1234 2150 1697 2047 
L 1894 2003 
Q 2506 1872 2764 1633 
Q 3022 1394 3022 966 
Q 3022 478 2636 193 
Q 2250 -91 1575 -91 
Q 1294 -91 989 -36 
Q 684 19 347 128 
L 347 722 
Q 666 556 975 473 
Q 1284 391 1588 391 
Q 1994 391 2212 530 
Q 2431 669 2431 922 
Q 2431 1156 2273 1281 
Q 2116 1406 1581 1522 
L 1381 1569 
Q 847 1681 609 1914 
Q 372 2147 372 2553 
Q 372 3047 722 3315 
Q 1072 3584 1716 3584 
Q 2034 3584 2315 3537 
Q 2597 3491 2834 3397 
z
" transform="scale(0.015625)"/>
      <path id="DejaVuSans-61" d="M 2194 1759 
Q 1497 1759 1228 1600 
Q 959 1441 959 1056 
Q 959 750 1161 570 
Q 1363 391 1709 391 
Q 2188 391 2477 730 
Q 2766 1069 2766 1631 
L 2766 1759 
L 2194 1759 
z
M 3341 1997 
L 3341 0 
L 2766 0 
L 2766 531 
Q 2569 213 2275 61 
Q 1981 -91 1556 -91 
Q 1019 -91 701 211 
Q 384 513 384 1019 
Q 384 1609 779 1909 
Q 1175 2209 1959 2209 
L 2766 2209 
L 2766 2266 
Q 2766 2663 2505 2880 
Q 2244 3097 1772 3097 
Q 1472 3097 1187 3025 
Q 903 2953 641 2809 
L 641 3341 
Q 956 3463 1253 3523 
Q 1550 3584 1831 3584 
Q 2591 3584 2966 3190 
Q 3341 2797 3341 1997 
z
" transform="scale(0.015625)"/>
      <path id="DejaVuSans-63" d="M 3122 3366 
L 3122 2828 
Q 2878 2963 2633 3030 
Q 2388 3097 2138 3097 
Q 1578 3097 1268 2742 
Q 959 2388 959 1747 
Q 959 1106 1268 751 
Q 1578 397 2138 397 
Q 2388 397 2633 464 
Q 2878 531 3122 666 
L 3122 134 
Q 2881 22 2623 -34 
Q 2366 -91 2075 -91 
Q 1284 -91 818 406 
Q 353 903 353 1747 
Q 353 2603 823 3093 
Q 1294 3584 2113 3584 
Q 2378 3584 2631 3529 
Q 2884 3475 3122 3366 
z
" transform="scale(0.015625)"/>
      <path id="DejaVuSans-6f" d="M 1959 3097 
Q 1497 3097 1228 2736 
Q 959 2375 959 1747 
Q 959 1119 1226 758 
Q 1494 397 1959 397 
Q 2419 397 2687 759 
Q 2956 1122 2956 1747 
Q 2956 2369 2687 2733 
Q 2419 3097 1959 3097 
z
M 1959 3584 
Q 2709 3584 3137 3096 
Q 3566 2609 3566 1747 
Q 3566 888 3137 398 
Q 2709 -91 1959 -91 
Q 1206 -91 779 398 
Q 353 888 353 1747 
Q 353 2609 779 3096 
Q 1206 3584 1959 3584 
z
" transform="scale(0.015625)"/>
      <path id="DejaVuSans-72" d="M 2631 2963 
Q 2534 3019 2420 3045 
Q 2306 3072 2169 3072 
Q 1681 3072 1420 2755 
Q 1159 2438 1159 1844 
L 1159 0 
L 581 0 
L 581 3500 
L 1159 3500 
L 1159 2956 
Q 1341 3275 1631 3429 
Q 1922 3584 2338 3584 
Q 2397 3584 2469 3576 
Q 2541 3569 2628 3553 
L 2631 2963 
z
" transform="scale(0.015625)"/>
      <path id="DejaVuSans-65" d="M 3597 1894 
L 3597 1613 
L 953 1613 
Q 991 1019 1311 708 
Q 1631 397 2203 397 
Q 2534 397 2845 478 
Q 3156 559 3463 722 
L 3463 178 
Q 3153 47 2828 -22 
Q 2503 -91 2169 -91 
Q 1331 -91 842 396 
Q 353 884 353 1716 
Q 353 2575 817 3079 
Q 1281 3584 2069 3584 
Q 2775 3584 3186 3129 
Q 3597 2675 3597 1894 
z
M 3022 2063 
Q 3016 2534 2758 2815 
Q 2500 3097 2075 3097 
Q 1594 3097 1305 2825 
Q 1016 2553 972 2059 
L 3022 2063 
z
" transform="scale(0.015625)"/>
     </defs>
     <use xlink:href="#DejaVuSans-75"/>
     <use xlink:href="#DejaVuSans-73" x="63.378906"/>
     <use xlink:href="#DejaVuSans-61" x="115.478516"/>
     <use xlink:href="#DejaVuSans-31" x="176.757812"/>
     <use xlink:href="#DejaVuSans-2d" x="240.380859"/>
     <use xlink:href="#DejaVuSans-63" x="276.464844"/>
     <use xlink:href="#DejaVuSans-6f" x="331.445312"/>
     <use xlink:href="#DejaVuSans-72" x="392.626953"/>
     <use xlink:href="#DejaVuSans-65" x="431.490234"/>
     <use xlink:href="#DejaVuSans-2d" x="493.013672"/>
     <use xlink:href="#DejaVuSans-30" x="529.097656"/>
     <use xlink:href="#DejaVuSans-31" x="592.720703"/>
    </g>
   </g>
   <g id="text_19">
    <g id="patch_32">
     <path d="M 1051.393078 427.35125 
L 1091.649328 427.35125 
L 1091.649328 418.64875 
L 1051.393078 418.64875 
z
" style="fill: #4b77be"/>
    </g>
    <!-- usa2-rtr-1 -->
    <g style="fill: #ffffff" transform="translate(1051.873078 425.2075) scale(0.08 -0.08)">
     <use xlink:href="#DejaVuSans-75"/>
     <use xlink:href="#DejaVuSans-73" x="63.378906"/>
     <use xlink:href="#DejaVuSans-61" x="115.478516"/>
     <use xlink:href="#DejaVuSans-32" x="176.757812"/>
     <use xlink:href="#DejaVuSans-2d" x="240.380859"/>
     <use xlink:href="#DejaVuSans-72" x="276.464844"/>
     <use xlink:href="#DejaVuSans-74" x="317.578125"/>
     <use xlink:href="#DejaVuSans-72" x="356.787109"/>
     <use xlink:href="#DejaVuSans-2d" x="391.525391"/>
     <use xlink:href="#DejaVuSans-31" x="427.609375"/>
    </g>
   </g>
   <g id="text_20">
    <g id="patch_33">
     <path d="M 957.932937 221.080348 
L 1021.032937 221.080348 
L 1021.032937 212.377848 
L 957.932937 212.377848 
z
" style="fill: #4b77be"/>
    </g>
    <!-- usa1-access-02 -->
    <g style="fill: #ffffff" transform="translate(958.412937 218.936598) scale(0.08 -0.08)">
     <use xlink:href="#DejaVuSans-75"/>
     <use xlink:href="#DejaVuSans-73" x="63.378906"/>
     <use xlink:href="#DejaVuSans-61" x="115.478516"/>
     <use xlink:href="#DejaVuSans-31" x="176.757812"/>
     <use xlink:href="#DejaVuSans-2d" x="240.380859"/>
     <use xlink:href="#DejaVuSans-61" x="276.464844"/>
     <use xlink:href="#DejaVuSans-63" x="337.744141"/>
     <use xlink:href="#DejaVuSans-63" x="392.724609"/>
     <use xlink:href="#DejaVuSans-65" x="447.705078"/>
     <use xlink:href="#DejaVuSans-73" x="509.228516"/>
     <use xlink:href="#DejaVuSans-73" x="561.328125"/>
     <use xlink:href="#DejaVuSans-2d" x="613.427734"/>
     <use xlink:href="#DejaVuSans-30" x="649.511719"/>
     <use xlink:href="#DejaVuSans-32" x="713.134766"/>
    </g>
   </g>
   <g id="text_21">
    <g id="patch_34">
     <path d="M 742.680961 80.299 
L 796.148461 80.299 
L 796.148461 71.5965 
L 742.680961 71.5965 
z
" style="fill: #4b77be"/>
    </g>
    <!-- usa1-core-02 -->
    <g style="fill: #ffffff" transform="translate(743.160961 78.15525) scale(0.08 -0.08)">
     <use xlink:href="#DejaVuSans-75"/>
     <use xlink:href="#DejaVuSans-73" x="63.378906"/>
     <use xlink:href="#DejaVuSans-61" x="115.478516"/>
     <use xlink:href="#DejaVuSans-31" x="176.757812"/>
     <use xlink:href="#DejaVuSans-2d" x="240.380859"/>
     <use xlink:href="#DejaVuSans-63" x="276.464844"/>
     <use xlink:href="#DejaVuSans-6f" x="331.445312"/>
     <use xlink:href="#DejaVuSans-72" x="392.626953"/>
     <use xlink:href="#DejaVuSans-65" x="431.490234"/>
     <use xlink:href="#DejaVuSans-2d" x="493.013672"/>
     <use xlink:href="#DejaVuSans-30" x="529.097656"/>
     <use xlink:href="#DejaVuSans-32" x="592.720703"/>
    </g>
   </g>
   <g id="text_22">
    <g id="patch_35">
     <path d="M 454.452881 49.704289 
L 507.920381 49.704289 
L 507.920381 41.001789 
L 454.452881 41.001789 
z
" style="fill: #4b77be"/>
    </g>
    <!-- usa2-core-02 -->
    <g style="fill: #ffffff" transform="translate(454.932881 47.560539) scale(0.08 -0.08)">
     <use xlink:href="#DejaVuSans-75"/>
     <use xlink:href="#DejaVuSans-73" x="63.378906"/>
     <use xlink:href="#DejaVuSans-61" x="115.478516"/>
     <use xlink:href="#DejaVuSans-32" x="176.757812"/>
     <use xlink:href="#DejaVuSans-2d" x="240.380859"/>
     <use xlink:href="#DejaVuSans-63" x="276.464844"/>
     <use xlink:href="#DejaVuSans-6f" x="331.445312"/>
     <use xlink:href="#DejaVuSans-72" x="392.626953"/>
     <use xlink:href="#DejaVuSans-65" x="431.490234"/>
     <use xlink:href="#DejaVuSans-2d" x="493.013672"/>
     <use xlink:href="#DejaVuSans-30" x="529.097656"/>
     <use xlink:href="#DejaVuSans-32" x="592.720703"/>
    </g>
   </g>
   <g id="text_23">
    <g id="patch_36">
     <path d="M 189.575326 139.00982 
L 243.042826 139.00982 
L 243.042826 130.30732 
L 189.575326 130.30732 
z
" style="fill: #4b77be"/>
    </g>
    <!-- usa2-core-01 -->
    <g style="fill: #ffffff" transform="translate(190.055326 136.86607) scale(0.08 -0.08)">
     <use xlink:href="#DejaVuSans-75"/>
     <use xlink:href="#DejaVuSans-73" x="63.378906"/>
     <use xlink:href="#DejaVuSans-61" x="115.478516"/>
     <use xlink:href="#DejaVuSans-32" x="176.757812"/>
     <use xlink:href="#DejaVuSans-2d" x="240.380859"/>
     <use xlink:href="#DejaVuSans-63" x="276.464844"/>
     <use xlink:href="#DejaVuSans-6f" x="331.445312"/>
     <use xlink:href="#DejaVuSans-72" x="392.626953"/>
     <use xlink:href="#DejaVuSans-65" x="431.490234"/>
     <use xlink:href="#DejaVuSans-2d" x="493.013672"/>
     <use xlink:href="#DejaVuSans-30" x="529.097656"/>
     <use xlink:href="#DejaVuSans-31" x="592.720703"/>
    </g>
   </g>
   <g id="text_24">
    <g id="patch_37">
     <path d="M 38.750672 319.861718 
L 79.006922 319.861718 
L 79.006922 311.159218 
L 38.750672 311.159218 
z
" style="fill: #4b77be"/>
    </g>
    <!-- usa1-rtr-1 -->
    <g style="fill: #ffffff" transform="translate(39.230672 317.717968) scale(0.08 -0.08)">
     <use xlink:href="#DejaVuSans-75"/>
     <use xlink:href="#DejaVuSans-73" x="63.378906"/>
     <use xlink:href="#DejaVuSans-61" x="115.478516"/>
     <use xlink:href="#DejaVuSans-31" x="176.757812"/>
     <use xlink:href="#DejaVuSans-2d" x="240.380859"/>
     <use xlink:href="#DejaVuSans-72" x="276.464844"/>
     <use xlink:href="#DejaVuSans-74" x="317.578125"/>
     <use xlink:href="#DejaVuSans-72" x="356.787109"/>
     <use xlink:href="#DejaVuSans-2d" x="391.525391"/>
     <use xlink:href="#DejaVuSans-31" x="427.609375"/>
    </g>
   </g>
   <g id="text_25">
    <g id="patch_38">
     <path d="M 43.100672 534.840782 
L 74.656922 534.840782 
L 74.656922 526.138282 
L 43.100672 526.138282 
z
" style="fill: #4b77be"/>
    </g>
    <!-- arista-3 -->
    <g style="fill: #ffffff" transform="translate(43.580672 532.697032) scale(0.08 -0.08)">
     <use xlink:href="#DejaVuSans-61"/>
     <use xlink:href="#DejaVuSans-72" x="61.279297"/>
     <use xlink:href="#DejaVuSans-69" x="102.392578"/>
     <use xlink:href="#DejaVuSans-73" x="130.175781"/>
     <use xlink:href="#DejaVuSans-74" x="182.275391"/>
     <use xlink:href="#DejaVuSans-61" x="221.484375"/>
     <use xlink:href="#DejaVuSans-2d" x="282.763672"/>
     <use xlink:href="#DejaVuSans-33" x="318.847656"/>
    </g>
   </g>
   <g id="text_26">
    <g id="patch_39">
     <path d="M 200.530951 715.69268 
L 232.087201 715.69268 
L 232.087201 706.99018 
L 200.530951 706.99018 
z
" style="fill: #4b77be"/>
    </g>
    <!-- arista-1 -->
    <g style="fill: #ffffff" transform="translate(201.010951 713.54893) scale(0.08 -0.08)">
     <use xlink:href="#DejaVuSans-61"/>
     <use xlink:href="#DejaVuSans-72" x="61.279297"/>
     <use xlink:href="#DejaVuSans-69" x="102.392578"/>
     <use xlink:href="#DejaVuSans-73" x="130.175781"/>
     <use xlink:href="#DejaVuSans-74" x="182.275391"/>
     <use xlink:href="#DejaVuSans-61" x="221.484375"/>
     <use xlink:href="#DejaVuSans-2d" x="282.763672"/>
     <use xlink:href="#DejaVuSans-31" x="318.847656"/>
    </g>
   </g>
   <g id="text_27">
    <g id="patch_40">
     <path d="M 465.408506 804.998211 
L 496.964756 804.998211 
L 496.964756 796.295711 
L 465.408506 796.295711 
z
" style="fill: #4b77be"/>
    </g>
    <!-- arista-2 -->
    <g style="fill: #ffffff" transform="translate(465.888506 802.854461) scale(0.08 -0.08)">
     <use xlink:href="#DejaVuSans-61"/>
     <use xlink:href="#DejaVuSans-72" x="61.279297"/>
     <use xlink:href="#DejaVuSans-69" x="102.392578"/>
     <use xlink:href="#DejaVuSans-73" x="130.175781"/>
     <use xlink:href="#DejaVuSans-74" x="182.275391"/>
     <use xlink:href="#DejaVuSans-61" x="221.484375"/>
     <use xlink:href="#DejaVuSans-2d" x="282.763672"/>
     <use xlink:href="#DejaVuSans-32" x="318.847656"/>
    </g>
   </g>
   <g id="text_28">
    <g id="patch_41">
     <path d="M 737.864711 774.4035 
L 800.964711 774.4035 
L 800.964711 765.701 
L 737.864711 765.701 
z
" style="fill: #4b77be"/>
    </g>
    <!-- usa2-access-01 -->
    <g style="fill: #ffffff" transform="translate(738.344711 772.25975) scale(0.08 -0.08)">
     <use xlink:href="#DejaVuSans-75"/>
     <use xlink:href="#DejaVuSans-73" x="63.378906"/>
     <use xlink:href="#DejaVuSans-61" x="115.478516"/>
     <use xlink:href="#DejaVuSans-32" x="176.757812"/>
     <use xlink:href="#DejaVuSans-2d" x="240.380859"/>
     <use xlink:href="#DejaVuSans-61" x="276.464844"/>
     <use xlink:href="#DejaVuSans-63" x="337.744141"/>
     <use xlink:href="#DejaVuSans-63" x="392.724609"/>
     <use xlink:href="#DejaVuSans-65" x="447.705078"/>
     <use xlink:href="#DejaVuSans-73" x="509.228516"/>
     <use xlink:href="#DejaVuSans-73" x="561.328125"/>
     <use xlink:href="#DejaVuSans-2d" x="613.427734"/>
     <use xlink:href="#DejaVuSans-30" x="649.511719"/>
     <use xlink:href="#DejaVuSans-31" x="713.134766"/>
    </g>
   </g>
   <g id="text_29">
    <g id="patch_42">
     <path d="M 957.932937 633.622152 
L 1021.032937 633.622152 
L 1021.032937 624.919652 
L 957.932937 624.919652 
z
" style="fill: #4b77be"/>
    </g>
    <!-- usa2-access-02 -->
    <g style="fill: #ffffff" transform="translate(958.412937 631.478402) scale(0.08 -0.08)">
     <use xlink:href="#DejaVuSans-75"/>
     <use xlink:href="#DejaVuSans-73" x="63.378906"/>
     <use xlink:href="#DejaVuSans-61" x="115.478516"/>
     <use xlink:href="#DejaVuSans-32" x="176.757812"/>
     <use xlink:href="#DejaVuSans-2d" x="240.380859"/>
     <use xlink:href="#DejaVuSans-61" x="276.464844"/>
     <use xlink:href="#DejaVuSans-63" x="337.744141"/>
     <use xlink:href="#DejaVuSans-63" x="392.724609"/>
     <use xlink:href="#DejaVuSans-65" x="447.705078"/>
     <use xlink:href="#DejaVuSans-73" x="509.228516"/>
     <use xlink:href="#DejaVuSans-73" x="561.328125"/>
     <use xlink:href="#DejaVuSans-2d" x="613.427734"/>
     <use xlink:href="#DejaVuSans-30" x="649.511719"/>
     <use xlink:href="#DejaVuSans-32" x="713.134766"/>
    </g>
   </g>
  </g>
 </g>
 <defs>
  <clipPath id="pf90a23f5ed">
   <rect x="7.2" y="7.2" width="1116" height="831.6"/>
  </clipPath>
 </defs>
</svg>
