<svg viewBox="0 0 400 100" xmlns="http://www.w3.org/2000/svg">
  <!-- Dark background -->
  <rect width="400" height="100" fill="#2d2d2d"/>

  <!-- Option 1: Original -->
  <g transform="translate(38, 38) scale(1)">
    <path d="M3 6C3 4.89543 3.89543 4 5 4H19C20.1046 4 21 4.89543 21 6V18C21 19.1046 20.1046 20 19 20H5C3.89543 20 3 19.1046 3 18V6Z" stroke="#4CAF50" stroke-width="2" stroke-linecap="round" stroke-linejoin="round" fill="none"/>
    <path d="M8 9L16 9" stroke="#4CAF50" stroke-width="2" stroke-linecap="round"/>
    <path d="M8 12L16 12" stroke="#4CAF50" stroke-width="2" stroke-linecap="round"/>
    <path d="M8 15L12 15" stroke="#4CAF50" stroke-width="2" stroke-linecap="round"/>
  </g>

  <!-- Option 2: Map with Grid -->
  <g transform="translate(138, 38) scale(1)">
    <path d="M3 6C3 4.89543 3.89543 4 5 4H19C20.1046 4 21 4.89543 21 6V18C21 19.1046 20.1046 20 19 20H5C3.89543 20 3 19.1046 3 18V6Z" stroke="#4CAF50" stroke-width="2" stroke-linecap="round" stroke-linejoin="round" fill="none"/>
    <path d="M7 8L17 8M7 12L17 12M7 16L17 16" stroke="#4CAF50" stroke-width="1.5" stroke-linecap="round"/>
    <path d="M9 6L9 18M13 6L13 18M17 6L17 18" stroke="#4CAF50" stroke-width="1.5" stroke-linecap="round"/>
  </g>

  <!-- Option 3: Map with Tools -->
  <g transform="translate(238, 38) scale(1)">
    <path d="M4 6C4 4.89543 4.89543 4 6 4H18C19.1046 4 20 4.89543 20 6V18C20 19.1046 19.1046 20 18 20H6C4.89543 20 4 19.1046 4 18V6Z" stroke="#4CAF50" stroke-width="2" stroke-linecap="round" stroke-linejoin="round" fill="none"/>
    <path d="M8 8L16 8" stroke="#4CAF50" stroke-width="2" stroke-linecap="round"/>
    <path d="M8 12L16 12" stroke="#4CAF50" stroke-width="2" stroke-linecap="round"/>
    <circle cx="12" cy="16" r="2" stroke="#4CAF50" stroke-width="1.5" fill="none"/>
  </g>

  <!-- Option 4: Simplified Map -->
  <g transform="translate(338, 38) scale(1)">
    <path d="M4 4L12 8L20 4V20L12 16L4 20V4Z" stroke="#4CAF50" stroke-width="2" stroke-linecap="round" stroke-linejoin="round" fill="none"/>
    <path d="M12 8V16" stroke="#4CAF50" stroke-width="2" stroke-linecap="round"/>
  </g>
</svg>